<?xml version="1.0" encoding="utf-8"?>
<!-- Generator: Adobe Illustrator 26.0.2, SVG Export Plug-In . SVG Version: 6.00 Build 0)  -->
<svg version="1.1" id="Capa_1" xmlns="http://www.w3.org/2000/svg" xmlns:xlink="http://www.w3.org/1999/xlink" x="0px" y="0px"
	 viewBox="0 0 50 50" style="enable-background:new 0 0 50 50;" xml:space="preserve">
<style type="text/css">
	.st0{fill:#FFFFFF;}
</style>
<path class="st0" d="M2.7,11.5C2.7,11.5,2.7,11.5,2.7,11.5C2.7,11.5,2.7,11.5,2.7,11.5c-0.1,0-0.1,0-0.2,0c0,0,0,0,0,0c0,0,0,0,0,0
	c0,0,0,0,0,0c-0.1,0-0.1,0-0.2,0.1c0,0,0,0,0,0c-0.1,0-0.1,0.1-0.2,0.1c0,0,0,0,0,0c0,0,0,0,0,0c0,0,0,0,0,0c0,0,0,0,0,0
	c0,0-0.1,0.1-0.1,0.1c0,0,0,0,0,0c0,0,0,0,0,0c0,0,0,0,0,0c0,0,0,0,0,0.1c0,0,0,0,0,0c0,0,0,0,0,0c0,0,0,0.1,0,0.1c0,0,0,0,0,0
	c0,0,0,0,0,0c0,0,0,0.1,0,0.1c0,0,0,0,0,0c0,0,0,0,0,0c0,0,0,0,0,0c0,0,0,0,0,0.1c0,0,0,0,0,0c0,0,0,0.1,0.1,0.1c0,0,0,0,0,0
	c0,0,0,0,0,0c0,0,0,0,0,0l14.8,25.5c0.1,0.2,0.4,0.4,0.6,0.4c0,0,0,0,0.1,0c0.2,0,0.5-0.1,0.6-0.3l8.5-10.1l9.3,3.5c0,0,0,0,0,0
	c0.1,0,0.2,0.1,0.3,0.1c0.2,0,0.5-0.1,0.6-0.3c0.2-0.2,0.2-0.5,0.1-0.8l-0.9-12.4l11.5-5.1c0.3-0.2,0.5-0.5,0.5-0.9
	c-0.1-0.4-0.4-0.6-0.8-0.6L2.7,11.5L2.7,11.5z M27.7,26.8l0.7-0.8l2.1-2.5l3.7,5.9L27.7,26.8z M43.6,13.3L35.2,17l-22.7-3.9
	L43.6,13.3z M34.6,18.5l0.7,9.3l-3.9-6.1c0,0,0,0,0-0.1c0,0,0,0-0.1-0.1c0,0,0,0-0.1,0c0,0,0,0,0,0c0,0,0,0,0,0c0,0-0.1,0-0.1,0
	c0,0,0,0-0.1,0l0,0l-19.1-6.7L34.6,18.5z M29.3,22.5L17.6,36.3L4.5,13.7L29.3,22.5z"/>
</svg>
