<?xml version="1.0" encoding="utf-8"?>
<!-- Generator: Adobe Illustrator 26.0.2, SVG Export Plug-In . SVG Version: 6.00 Build 0)  -->
<svg version="1.1" id="Capa_1" xmlns="http://www.w3.org/2000/svg" xmlns:xlink="http://www.w3.org/1999/xlink" x="0px" y="0px"
	 viewBox="0 0 50 50" style="enable-background:new 0 0 50 50;" xml:space="preserve">
<style type="text/css">
	.st0{fill:#FFFFFF;}
</style>
<path class="st0" d="M11.6,48.7c0.2,0.4,0.6,0.6,1,0.6h21.7c0.4,0,0.8-0.2,1-0.5l5.7-8.4c0.3-0.4,0.3-0.9,0.1-1.3
	c-0.2-0.4-0.6-0.6-1.1-0.6H20.2v-2.4h3.5h0.1h18.7c0.3,0,0.7-0.1,0.9-0.4c0.2-0.2,0.3-0.6,0.3-0.9c0-0.3-0.6-6.4-3.2-13.4
	c-3.5-9.3-9-15.7-16-18.7c-0.2-0.1-0.4-0.2-0.7-0.2h-3.5V1.9c0-0.7-0.5-1.2-1.2-1.2c-0.7,0-1.2,0.5-1.2,1.2v1.8v31.2v3.6H7.5
	c-0.4,0-0.8,0.2-1.1,0.6c-0.2,0.4-0.2,0.9,0,1.2L11.6,48.7z M24.9,29.1v-4.7V5.6c7.7,3.9,11.9,12.1,14,18.9c0.5,1.7,1,3.3,1.3,4.7
	c0.4,1.9,0.7,3.5,0.9,4.6H24.9V29.1z M20.2,4.9h2.3v28.8h-2.3V4.9z M37.7,41l-4.1,5.9H13.3L9.7,41H37.7z"/>
</svg>
