<?xml version="1.0" encoding="utf-8"?>
<!-- Generator: Adobe Illustrator 26.0.2, SVG Export Plug-In . SVG Version: 6.00 Build 0)  -->
<svg version="1.1" id="Capa_1" xmlns="http://www.w3.org/2000/svg" xmlns:xlink="http://www.w3.org/1999/xlink" x="0px" y="0px"
	 viewBox="0 0 50 50" style="enable-background:new 0 0 50 50;" xml:space="preserve">
<style type="text/css">
	.st0{fill:#FFFFFF;}
</style>
<g>
	<path class="st0" d="M45.2,8.7V33c-0.5,1.6-1.6,2-2.9,2c-3.5,0-7,0-10.6,0h-0.5v5.8h0.5c2,0,3.9,0,5.9,0c0.7,0,1.2,0.4,1.2,1.1
		c0.1,0.6-0.4,1.1-1,1.3c-0.2,0-0.4,0-0.5,0c-8.2,0-16.4,0-24.6,0c-0.1,0-0.3,0-0.4,0c-0.5,0-0.8-0.3-1-0.8
		c-0.3-0.8,0.3-1.6,1.2-1.6c2,0,3.9,0,5.9,0h0.4V35h-0.5c-3.6,0-7.2,0-10.8,0c-1.7,0-2.7-0.9-2.7-2.6V9.5c0-1.7,0.9-2.7,2.7-2.7
		h35.1c0.1,0,0.2,0,0.3,0c1,0,1.8,0.6,2.2,1.6C45.1,8.5,45.1,8.6,45.2,8.7 M7.2,32.6h35.6V9.2H7.2V32.6z M21.2,40.8h7.7V35h-7.7
		V40.8z"/>
</g>
</svg>
