<?xml version="1.0" encoding="utf-8"?>
<!-- Generator: Adobe Illustrator 26.0.2, SVG Export Plug-In . SVG Version: 6.00 Build 0)  -->
<svg version="1.1" id="Capa_1" xmlns="http://www.w3.org/2000/svg" xmlns:xlink="http://www.w3.org/1999/xlink" x="0px" y="0px"
	 viewBox="0 0 50 50" style="enable-background:new 0 0 50 50;" xml:space="preserve">
<style type="text/css">
	.st0{fill:#FFFFFF;}
</style>
<g>
	<path class="st0" d="M26.4,1.9C27.3,2,28.2,2,29,2.2c7.2,1.4,12.6,5.3,16.1,11.7c2.2,4.1,3,8.5,2.5,13.1c-1,9.5-8.2,17.6-17.4,19.7
		c-4.1,0.9-8.1,0.8-12.1-0.5c-0.8-0.3-1.6,0-2.3,0.1c-3.5,0.6-6.9,1.2-10.4,1.8c-0.5,0.1-0.9,0-1.3-0.4c-0.4-0.4-0.3-0.9-0.1-1.4
		c1-2.4,2.1-4.8,3.1-7.2c0.1-0.3,0.1-0.5-0.1-0.7c-1.8-2.4-3.1-5-3.9-7.9c-0.8-2.9-1-5.8-0.6-8.8c0.5-4.2,2.1-8,4.8-11.4
		c3.6-4.4,8.2-7.2,13.8-8.2C22,2.1,22.9,2,23.8,1.9H26.4z M7.1,45.3c0.2,0,0.2,0,0.3,0c2.8-0.5,5.7-1,8.5-1.5
		c1.1-0.2,2.2-0.1,3.3,0.2c1.4,0.4,2.8,0.7,4.2,0.8c4.6,0.4,9-0.6,12.8-3.3c6.9-4.8,10-11.6,8.9-20c-0.7-5.3-3.4-9.7-7.6-13
		C30.6,3.2,20.6,2.9,13.5,8c-5.3,3.8-8.2,8.9-8.7,15.3c-0.2,3.2,0.3,6.2,1.5,9.2c0.8,1.8,1.8,3.5,3.1,5.1c0.4,0.5,0.5,1.1,0.2,1.7
		c-0.3,0.6-0.5,1.2-0.8,1.7C8.3,42.4,7.7,43.8,7.1,45.3"/>
	<path class="st0" d="M25,26.3c2.5,0,5.1,0,7.6,0c1,0,1.6,0.8,1.3,1.6c-0.2,0.5-0.5,0.8-1.1,0.8c-0.1,0-0.3,0-0.5,0H17.7
		c-1,0-1.6-0.5-1.6-1.2c0-0.8,0.6-1.2,1.6-1.2C20.1,26.3,22.6,26.3,25,26.3"/>
	<path class="st0" d="M20.7,20c1.1,0,2.2,0,3.2,0c1.1,0,1.7,1,1.2,1.8c-0.2,0.5-0.7,0.7-1.2,0.7c-2.2,0-4.4,0-6.5,0
		c-0.8,0-1.3-0.5-1.3-1.2c0-0.7,0.5-1.2,1.3-1.2C18.5,20,19.6,20,20.7,20"/>
</g>
</svg>
