<?xml version="1.0" encoding="utf-8"?>
<!-- Generator: Adobe Illustrator 26.0.2, SVG Export Plug-In . SVG Version: 6.00 Build 0)  -->
<svg version="1.1" id="Capa_1" xmlns="http://www.w3.org/2000/svg" xmlns:xlink="http://www.w3.org/1999/xlink" x="0px" y="0px"
	 viewBox="0 0 50 50" style="enable-background:new 0 0 50 50;" xml:space="preserve">
<style type="text/css">
	.st0{fill:#FFFFFF;}
</style>
<g>
	<path class="st0" d="M45.8,11h-11V4.2c0-0.9-0.9-1.6-2-1.6c-0.1,0-0.2,0-0.3,0c-0.1,0-0.2,0-0.3,0H17.4c0,0-0.1,0-0.1,0
		c0,0-0.1,0-0.1,0c-1.1,0-2,0.7-2,1.6V11h-11C2.4,11,1,12.4,1,14.2V29c0,1.7,1.4,3.2,3.1,3.3v11.8c0,1.8,1.3,3.3,2.9,3.3H43
		c1.6,0,2.9-1.5,2.9-3.3V32.3c1.7-0.1,3.1-1.5,3.1-3.3V14.2C49,12.4,47.6,11,45.8,11 M16.8,4.3c0.1,0,0.2-0.1,0.4-0.1
		c0,0,0.1,0,0.1,0c0,0,0,0,0,0h14.8c0,0,0.1,0,0.1,0c0.1,0,0.2,0,0.3,0c0.2,0,0.4,0,0.5,0.1v8.1c-0.1,0-0.2,0.1-0.3,0.1
		c-0.2,0-0.3,0-0.3-0.1V6.2c0-0.5-0.4-0.8-0.8-0.8H18.3c-0.5,0-0.8,0.4-0.8,0.8v6.2c-0.1,0-0.2,0.1-0.3,0.1c-0.2,0-0.3,0-0.3-0.1
		V4.3z M30.9,11H19.1V7h11.8V11z M44.3,44.1c0,0.9-0.6,1.6-1.3,1.6H7c-0.7,0-1.3-0.7-1.3-1.6V32.3h12.8v1.5c0,1.8,1.5,3.3,3.3,3.3
		h5.8c1.8,0,3.3-1.5,3.3-3.3v-1.5h13.4V44.1z M20.1,33.8v-4.6c0-0.9,0.7-1.6,1.6-1.6h5.8c0.9,0,1.6,0.7,1.6,1.6v4.6
		c0,0.9-0.7,1.6-1.6,1.6h-5.8C20.9,35.4,20.1,34.7,20.1,33.8 M47.4,29c0,0.9-0.7,1.6-1.6,1.6H30.9v-1.5c0-1.8-1.5-3.3-3.3-3.3h-5.8
		c-1.8,0-3.3,1.5-3.3,3.3v1.5H4.2c-0.9,0-1.6-0.7-1.6-1.6V14.2c0-0.9,0.7-1.6,1.6-1.6h11c0,0.9,0.9,1.5,2,1.5c1.1,0,1.9-0.7,2-1.5
		h11.8c0,0.9,0.9,1.5,2,1.5s1.9-0.7,2-1.5h11c0.9,0,1.6,0.7,1.6,1.6V29z"/>
	<path class="st0" d="M24.7,34.3c1.6,0,2.9-1.3,2.9-2.9c0-1.6-1.3-2.9-2.9-2.9c-1.6,0-2.9,1.3-2.9,2.9C21.8,33,23.1,34.3,24.7,34.3
		 M24.7,29.4c1.1,0,2.1,0.9,2.1,2.1c0,1.1-0.9,2.1-2.1,2.1c-1.1,0-2.1-0.9-2.1-2.1C22.6,30.3,23.6,29.4,24.7,29.4"/>
</g>
</svg>
