<?xml version="1.0" encoding="utf-8"?>
<!-- Generator: Adobe Illustrator 26.0.2, SVG Export Plug-In . SVG Version: 6.00 Build 0)  -->
<svg version="1.1" id="Capa_1" xmlns="http://www.w3.org/2000/svg" xmlns:xlink="http://www.w3.org/1999/xlink" x="0px" y="0px"
	 viewBox="0 0 50 50" style="enable-background:new 0 0 50 50;" xml:space="preserve">
<style type="text/css">
	.st0{fill:#FFFFFF;}
</style>
<path class="st0" d="M7.9,26.1c-0.9,0.2-1.5,0.9-1.5,1.9c0,0.4,0.1,0.8,0.4,1.1L6,33.8c0,0.2,0,0.4,0.2,0.6c0.1,0.2,0.3,0.2,0.5,0.2
	H10c0.2,0,0.4-0.1,0.5-0.2c0.1-0.2,0.2-0.4,0.2-0.6L10,28.9c0.2-0.3,0.3-0.6,0.3-1c0-0.7-0.4-1.3-0.9-1.6v-2.5l4.3,1.9v10.6
	c0,1.3,1.1,2.4,2.4,2.4h19.5c1.3,0,2.4-1.1,2.4-2.4V25l10.2-4.4c0.3-0.1,0.4-0.4,0.4-0.7c0-0.3-0.2-0.5-0.5-0.6l-23.2-7.9
	c-0.2-0.1-0.3,0-0.5,0c-7.9,3-21,7.8-22.2,7.9c-0.3,0-0.6,0.2-0.7,0.6c-0.1,0.3,0.1,0.6,0.4,0.8l6,2.6V26.1z M7.5,33.2L8.2,29
	c0-0.2,0-0.5-0.2-0.6c-0.1-0.1-0.2-0.2-0.2-0.4c0-0.3,0.2-0.5,0.5-0.5c0.3,0,0.5,0.2,0.5,0.5c0,0.2-0.1,0.3-0.1,0.3
	c-0.1,0.2-0.2,0.4-0.2,0.5l0.6,4.4H7.5z M36.5,36.3c0,0.5-0.4,1-1,1H16c-0.5,0-1-0.4-1-1v-10l9.7,4.2c0.1,0,0.2,0.1,0.3,0.1
	c0.1,0,0.2,0,0.3-0.1l11.2-4.9V36.3z M4.3,20.1c5-1.6,17.1-6.1,20.3-7.3L45.9,20L25,29.1l-13.8-6l11.7-1.5c0.5,0.3,1.3,0.5,2.1,0.5
	c1.6,0,2.8-0.6,2.8-1.5c0-0.8-1.2-1.5-2.8-1.5c-1.4,0-2.5,0.5-2.8,1.2L8.7,22L4.3,20.1z M22.9,20.6c0-0.3,0.8-0.8,2.1-0.8
	c1.3,0,2.1,0.5,2.1,0.8c0,0.3-0.8,0.8-2.1,0.8C23.7,21.4,22.9,20.9,22.9,20.6"/>
</svg>
