<svg id="Layer_1" data-name="Layer 1" xmlns="http://www.w3.org/2000/svg" viewBox="0 0 1800 1800"><defs><style>.cls-1{fill:#770001;}.cls-2,.cls-3,.cls-4{fill:#fff;}.cls-3,.cls-4{font-size:48.23px;font-family:Futura-Medium, Futura;}.cls-3,.cls-7{letter-spacing:0.1em;}.cls-4{letter-spacing:0.1em;}.cls-5{letter-spacing:0.12em;}.cls-6{letter-spacing:0.06em;}</style></defs><title>fondo-rojo</title><rect class="cls-1" x="-12.22" y="-6.01" width="1822.8" height="1821.66"/><g id="_Group_" data-name="&lt;Group&gt;"><path id="_Compound_Path_" data-name="&lt;Compound Path&gt;" class="cls-2" d="M339.56,1210.7h46a2.34,2.34,0,0,0,1.85-3.78l-37-47.48a2.34,2.34,0,0,0-3.69,0l-7,9a17.35,17.35,0,0,0-29.27-2.6l-13.11-17.37a2.34,2.34,0,0,0-3.74,0L249.47,1207a2.34,2.34,0,0,0,1.87,3.75h88.22Zm-44.11-56.92L334.86,1206H256Zm40.95,18.92-10.57,13.57-12.43-16.48a12.7,12.7,0,0,1,23,2.91Zm4.33,33.32-12-15.88,19.83-25.44,32.2,41.33Z"/></g><g id="_Group_2" data-name="&lt;Group&gt;"><path id="_Compound_Path_2" data-name="&lt;Compound Path&gt;" class="cls-2" d="M493.56,1224.93a2.34,2.34,0,0,0,2,1.12h41.79a2.34,2.34,0,0,0,1.93-1l11-16.15a2.34,2.34,0,0,0-1.93-3.66H510.23v-4.63h42.88a2.34,2.34,0,0,0,2.33-2.54,107,107,0,0,0-6.15-25.86c-6.7-17.92-17.37-30.37-30.87-36.06a2.32,2.32,0,0,0-1.37-.45h-6.83v-1.11a2.34,2.34,0,1,0-4.68,0v70.66H485.71a2.34,2.34,0,0,0-2,3.56Zm25.69-37.84v-45.44c14.88,7.59,22.86,23.38,27.07,36.39,1.05,3.25,1.87,6.32,2.49,9,.86,3.72,1.37,6.81,1.65,8.82H519.25Zm-9-46.74h4.35v55.55h-4.35ZM544,1209.9l-7.85,11.47H496.88l-7-11.47Z"/></g><g id="_Group_3" data-name="&lt;Group&gt;"><g id="_Group_4" data-name="&lt;Group&gt;"><path id="_Path_" data-name="&lt;Path&gt;" class="cls-2" d="M1106.23,1201.63h8.55a1.18,1.18,0,0,0,1.13-.86q.48-3,1.18-5.87a1.18,1.18,0,0,0-1.13-1.48h-8.11a1.2,1.2,0,0,0-1.13.86q-.91,2.91-1.62,5.87c-.35,1.46,1.9,2.09,2.26.62q.71-3,1.62-5.87l-1.13.86H1116l-1.13-1.48q-.71,2.91-1.18,5.87l1.13-.86h-8.55A1.17,1.17,0,0,0,1106.23,1201.63Z"/></g><g id="_Group_5" data-name="&lt;Group&gt;"><path id="_Path_2" data-name="&lt;Path&gt;" class="cls-2" d="M1115.72,1181.07c-1.43.13-2.78-.51-4.28-.51s-2.06,0-3.15,1.29a1.21,1.21,0,0,0-.18,1.42c.4.61,2.6,3.36,2.43,3.74a1.19,1.19,0,0,0,1,1.76h5a1.16,1.16,0,0,0,1-.58q1.5-3,3.28-5.87a1.18,1.18,0,0,0-1-1.76,13.8,13.8,0,0,0-4.46.55,1.17,1.17,0,0,0,.62,2.26,4.92,4.92,0,0,1,2-.47h1.86l-1-1.76q-1.78,2.86-3.28,5.87l1-.58h-5l1,1.76c1-2.21-1.26-4.32-2.43-6.1l-.18,1.42c.6-.74-.26-.52.7-.61a8.66,8.66,0,0,1,1.76,0,12.24,12.24,0,0,0,3.3.51C1117.21,1183.28,1117.22,1180.93,1115.72,1181.07Z"/></g><g id="_Group_6" data-name="&lt;Group&gt;"><path id="_Path_3" data-name="&lt;Path&gt;" class="cls-2" d="M1104.53,1214.63h9.69a1.18,1.18,0,0,0,1.17-1.17q-.11-2.94,0-5.87a1.18,1.18,0,0,0-1.17-1.17h-9a1.18,1.18,0,0,0-1.13.86q-.46,3.08-.79,6.18c-.15,1.5,2.19,1.49,2.34,0q.29-2.79.71-5.56l-1.13.86h9l-1.17-1.17q-.12,2.94,0,5.87l1.17-1.17h-9.69A1.17,1.17,0,0,0,1104.53,1214.63Z"/></g><path id="_Compound_Path_3" data-name="&lt;Compound Path&gt;" class="cls-2" d="M1083.8,1144.24c1.42,0,2.76.09,4.06.19l.12,0h.05l1,.08-2,1.55a1.4,1.4,0,0,0,1.72,2.22l4.11-3.19q1.95.37,3.7.89l-4.66,2.69a1.4,1.4,0,1,0,1.41,2.43l6.75-3.91q1.22.5,2.33,1.06l-7.93,5.15a1.4,1.4,0,1,0,1.53,2.36l9.15-5.94q1.28.81,2.39,1.69l-12,6.56a1.4,1.4,0,1,0,1.34,2.46l12.95-7.06c.52.51,1,1,1.47,1.53a1.39,1.39,0,0,0,.47.53l.43.52-9.38,4.6a1.4,1.4,0,0,0,1.24,2.52l9.83-4.83.4.63,0,.09a8.46,8.46,0,0,0-6.82,4.77l-.28-.21a1.4,1.4,0,1,0-1.69,2.24l1.17.88c0,.24,0,.48,0,.73a8.38,8.38,0,0,0,.11,1.28l-6.44-4.62a1.4,1.4,0,1,0-1.64,2.28l9,6.45q-.92.69-1.83,1.51l-7.87-5a1.4,1.4,0,0,0-1.52,2.36l7.32,4.7-.71.8-.12,0a1.39,1.39,0,0,0-.62.57L1096,1175a1.4,1.4,0,0,0-1.15,2.56l5.94,2.65c-.5.75-1,1.57-1.44,2.41l-4.24-1.74a1.4,1.4,0,0,0-1.06,2.6l4,1.66q-.43,1-.83,2l-3.78-.54a1.4,1.4,0,1,0-.4,2.78l3.26.47c-.21.69-.4,1.39-.58,2.12l-3.36.44a1.4,1.4,0,0,0,.18,2.8h.18l2.38-.31c-.11.6-.22,1.2-.31,1.82a1.4,1.4,0,0,0,1.19,1.59l.21,0a1.4,1.4,0,0,0,1.39-1.2c.18-1.2.4-2.34.64-3.44a1.4,1.4,0,0,0,.07-.32c0-.15.07-.31.1-.47l.95,1.64a1.4,1.4,0,1,0,2.43-1.4l-2.29-4q.5-1.47,1.08-2.79l1.69,4.15a1.4,1.4,0,0,0,1.83.77,1.39,1.39,0,0,0,.39-.24,120.61,120.61,0,0,0-4.35,30.86,2.34,2.34,0,0,0,2.34,2.33h14.13a2.34,2.34,0,0,0,2.31-2.69c-2.51-16.46,1.39-30.79,4.73-39.34a8.41,8.41,0,0,0,2.77-1.16,1.4,1.4,0,0,0,2.65-.23l1.47-6.25a8.37,8.37,0,0,0,1.7-.73l.55.35-3.12,11.08a1.4,1.4,0,1,0,2.7.76l2.83-10.08c.43.36.85.73,1.26,1.12l-2.92,8a1.4,1.4,0,1,0,2.64,1l2.42-6.62q.43.54.83,1.11l-1.8,5.82a1.4,1.4,0,1,0,2.68.83l1.07-3.47q.51,1,1,2l-1.7,3.66a1.4,1.4,0,1,0,2.55,1.18l.55-1.17a1.38,1.38,0,0,0,.11.35c.3,1,.57,1.93.81,2.95a1.41,1.41,0,0,0,1.37,1.08,1.33,1.33,0,0,0,.32,0,1.4,1.4,0,0,0,1-1.69c-.11-.48-.24-.94-.37-1.4l1.93.08h.06a1.4,1.4,0,0,0,.06-2.81l-2.91-.13c-.19-.54-.39-1.06-.59-1.58l2.68-.62a1.4,1.4,0,1,0-.64-2.73l-3.19.74c-.25-.5-.5-1-.75-1.47l3.32-1.71a1.4,1.4,0,1,0-1.28-2.5l-3.5,1.8c-.42-.62-.85-1.22-1.28-1.78l4.9-2.72a1.4,1.4,0,1,0-1.36-2.46l-5.29,2.94a1.38,1.38,0,0,0-.57-.4l-.08,0-.53-.5,6-4.62a1.4,1.4,0,0,0-1.71-2.22l-6.49,5c-.43-.32-.87-.62-1.3-.91a8.45,8.45,0,0,0,.63-.81l6.5-5.58a1.4,1.4,0,1,0-1.83-2.13l-3.25,2.79a8.38,8.38,0,0,0-9.78-8.11c.12-.25.24-.51.37-.77a1.4,1.4,0,0,0,.32-.62l.3-.56,9.5,3.85a1.39,1.39,0,0,0,.53.1,1.4,1.4,0,0,0,.53-2.71l-9-3.66.31-.43a1.39,1.39,0,0,0,.41-.54c.38-.49.79-1,1.23-1.48l12.59,5.74a1.4,1.4,0,0,0,1.16-2.55l-11.64-5.31c.62-.56,1.29-1.1,2-1.63l9,4.95a1.4,1.4,0,1,0,1.36-2.46l-7.67-4.24q.94-.55,2-1.06l6.57,3.2a1.4,1.4,0,0,0,1.23-2.52l-4.39-2.14q1.51-.55,3.2-1l4.05,2.71a1.4,1.4,0,1,0,1.56-2.34l-1.82-1.21c1.47-.26,3-.46,4.68-.59a1.4,1.4,0,1,0-.22-2.8c-.7.06-1.37.13-2,.21l.51-2.57a1.4,1.4,0,1,0-2.75-.55l-.71,3.55q-1.23.22-2.39.49l-.26-3.53a1.4,1.4,0,0,0-2.8.21l.3,4.06c-.79.24-1.54.5-2.28.77l-1.48-4.43a1.4,1.4,0,1,0-2.66.89l1.54,4.63c-1,.45-1.89.91-2.76,1.41l-2.4-6.5a1.4,1.4,0,1,0-2.63,1l2.55,6.91a1.39,1.39,0,0,0-.67.6,1.31,1.31,0,0,0-.06.13q-.5.37-1,.75l-4.45-8.09a1.4,1.4,0,0,0-2.46,1.35l4.76,8.66q-1,1-1.81,1.93l-6.18-10a1.4,1.4,0,0,0-2.58.57,1.34,1.34,0,0,0-.24-.16,1.4,1.4,0,0,0-1.9.59l-5.84,11.12q-1-1-2.19-2l4.42-9.58a1.4,1.4,0,0,0-2.55-1.17l-4.14,9c-.38-.27-.78-.53-1.18-.79a1.27,1.27,0,0,0-.86-.73l2.2-7.58a1.4,1.4,0,0,0-2.7-.78l-2.07,7.16c-1-.49-2.06-.94-3.18-1.36l1.3-5.09a1.4,1.4,0,1,0-2.72-.7l-1.25,4.89c-.84-.25-1.71-.48-2.61-.68l0-4.38a1.4,1.4,0,0,0-1.4-1.41h0a1.4,1.4,0,0,0-1.4,1.4v3.86c-.88-.14-1.79-.26-2.72-.35l-1-3.76a1.4,1.4,0,1,0-2.71.74l.77,2.8c-.75,0-1.5-.07-2.28-.07h0a1.4,1.4,0,0,0,0,2.81Zm40.7,12.35c-.39.79-.71,1.55-1,2.26l-.35-.56.28-.54a1.4,1.4,0,0,0-1.81-1.93l-.68-1.1a1.4,1.4,0,0,0-1.24-.66l1.45-2.61Zm-6.11,26.12c-.64,1.78-1.28,3.74-1.88,5.87-.53,1.88-1,3.89-1.45,6-.38,1.87-.71,3.83-1,5.87-.3,2.28-.51,4.66-.6,7.13-.08,1.91-.09,3.87,0,5.87s.22,4,.46,6.09h-9.06c.05-1.47.16-3.58.37-6.09.15-1.77.36-3.76.63-5.87s.67-4.66,1.15-7.13c.38-1.93.82-3.9,1.34-5.87s1.14-4,1.85-6c.14-.39.28-.79.43-1.18l.41,1.07s0,.07.06.11a1.4,1.4,0,0,0,2.57-1.1l-1.44-3.82c.15-.32.3-.64.45-1,.33-.67.68-1.31,1-2l.52,1.57a1.39,1.39,0,0,0,.2.38,1.4,1.4,0,0,0,1.57.51,1.41,1.41,0,0,0,.89-1.77l-.28-.85a8.46,8.46,0,0,0,2.1,1.21Zm-3.33-19a3.76,3.76,0,0,1,3.51,2.43,8.49,8.49,0,0,0-4.67,4.91,3.76,3.76,0,0,1,1.16-7.33Zm-4.88,10.65a8.44,8.44,0,0,0,1.5.85q-.87,1.25-1.66,2.58l-1-2.6Q1109.61,1174.77,1110.18,1174.38Zm-3.4,2.8,1.48,3.91c-.34.71-.67,1.43-1,2.15l-2.05-4.39C1105.73,1178.27,1106.25,1177.7,1106.78,1177.19Zm15,.53a3.77,3.77,0,1,1,3.77-3.77A3.77,3.77,0,0,1,1121.82,1177.72Zm10-11.24a3.76,3.76,0,0,1-2.57,3.55,8.48,8.48,0,0,0-4.91-4.12,3.76,3.76,0,0,1,7.48.57Zm-13.32-10.3,0,0,1.37,2.2-.87,1.65a8.34,8.34,0,0,0-1.44-.61l-.45-.8Zm-13.69,33.28-2.61-6.41q.51-.87,1-1.66l2.55,5.46q-.5,1.38-.94,2.78A1.37,1.37,0,0,0,1104.86,1189.45Zm15.61-47.21a1.38,1.38,0,0,0,.13-.37l6.45,10.4q-.55.78-1,1.54l-4.39-6.73a1.4,1.4,0,1,0-2.35,1.53l.13.19-4,7.18q-.6-.84-1.3-1.7Z"/></g><g id="_Group_7" data-name="&lt;Group&gt;"><path id="_Compound_Path_4" data-name="&lt;Compound Path&gt;" class="cls-2" d="M327.67,1343.78H308.3a11.52,11.52,0,0,0-11.51,11.51v6a21.08,21.08,0,0,0-19.17,21v20.59a21.08,21.08,0,0,0,21.06,21.06h39.54a20.92,20.92,0,0,0,10.18-2.63l.14-.08a21.07,21.07,0,0,0,10.73-18.34v-20.59a21.08,21.08,0,0,0-20.11-21v-5.92A11.52,11.52,0,0,0,327.67,1343.78Zm26.94,59.06a16.32,16.32,0,0,1-5,11.79v-44.17a16.32,16.32,0,0,1,5,11.79Zm-72.3-20.59a16.32,16.32,0,0,1,5.3-12v44.64a16.32,16.32,0,0,1-5.3-12Zm45.37-33.79a6.84,6.84,0,0,1,6.83,6.83v5.9h-5v-3.3a6.8,6.8,0,0,0-6.79-6.79h-9.41a6.8,6.8,0,0,0-6.79,6.79v3.3h-5v-5.9a6.84,6.84,0,0,1,6.83-6.83Zm17.25,18.85a2.35,2.35,0,0,0,0,.33v50.14a16.26,16.26,0,0,1-5.93,1.39V1365.9A16.25,16.25,0,0,1,344.92,1367.31Zm-42,51.9v-53.35h31.39v53.35Zm-10.61-1.31v-50.27a2.36,2.36,0,0,0,0-.45,16.28,16.28,0,0,1,6-1.3v53.3A16.26,16.26,0,0,1,292.27,1417.91Zm32.53-56.73H311.16v-3.3a2.12,2.12,0,0,1,2.11-2.11h9.41a2.12,2.12,0,0,1,2.11,2.11Z"/></g><g id="_Group_8" data-name="&lt;Group&gt;"><path id="_Compound_Path_5" data-name="&lt;Compound Path&gt;" class="cls-2" d="M543.7,1337.39a2.34,2.34,0,0,0-2-.46l-56.09,12.45h0a2.4,2.4,0,0,0-.4.13l-.07,0a2.34,2.34,0,0,0-.31.17l-.11.09-.22.18-.11.12-.16.2-.1.15a2.28,2.28,0,0,0-.12.22l-.07.17a2.13,2.13,0,0,0-.08.25c0,.06,0,.11,0,.17a2.29,2.29,0,0,0,0,.3s0,.08,0,.11v76.8a2.34,2.34,0,0,0,2.34,2.34h62.36a2.34,2.34,0,0,0,2.34-2.34v-76.8a2.34,2.34,0,0,0-2.34-2.34h-3.9v-10.12A2.34,2.34,0,0,0,543.7,1337.39Zm-3.8,11.94H507.45l32.44-7.2Zm6.24,76.8H488.45V1354h57.68Z"/><path id="_Compound_Path_6" data-name="&lt;Compound Path&gt;" class="cls-2" d="M500,1415h2.51v-5h1a3.78,3.78,0,0,0,0-7.55H500Zm2.51-10.06h1a1.25,1.25,0,1,1,0,2.51h-1Z"/><path id="_Compound_Path_7" data-name="&lt;Compound Path&gt;" class="cls-2" d="M511.36,1402.42,506.81,1415h2.67l1.28-3.52h3.87l1.28,3.52h2.67L514,1402.42Zm.32,6.54,1-2.84,1,2.84Z"/><path id="_Path_4" data-name="&lt;Path&gt;" class="cls-2" d="M527.52,1411.23a3.61,3.61,0,0,0-3.63-3.65,2.31,2.31,0,0,1-1.68-.56,1.32,1.32,0,0,1-.3-.81,1.26,1.26,0,0,1,1.26-1.26,3.76,3.76,0,0,1,2.06.61l1.81-1.81a6.26,6.26,0,0,0-3.87-1.33,3.78,3.78,0,0,0-.9,7.45,8.48,8.48,0,0,1,2.22.4,1.07,1.07,0,0,1,.5,1,1.26,1.26,0,0,1-1.24,1.26,3.76,3.76,0,0,1-2.57-1l-1.78,1.78a6.26,6.26,0,0,0,4.35,1.74A3.77,3.77,0,0,0,527.52,1411.23Z"/><path id="_Path_5" data-name="&lt;Path&gt;" class="cls-2" d="M532.12,1404.94a3.76,3.76,0,0,1,2.06.61l1.81-1.81a6.26,6.26,0,0,0-3.87-1.33,3.78,3.78,0,0,0-.9,7.45,8.48,8.48,0,0,1,2.22.4,1.07,1.07,0,0,1,.5,1,1.26,1.26,0,0,1-1.25,1.26,3.76,3.76,0,0,1-2.57-1l-1.78,1.78a6.26,6.26,0,0,0,4.35,1.74,3.78,3.78,0,0,0,3.77-3.77,3.61,3.61,0,0,0-3.64-3.65,2.31,2.31,0,0,1-1.68-.56,1.32,1.32,0,0,1-.3-.81A1.26,1.26,0,0,1,532.12,1404.94Z"/><path id="_Compound_Path_8" data-name="&lt;Compound Path&gt;" class="cls-2" d="M517.29,1393.87A16.26,16.26,0,1,0,501,1377.61,16.28,16.28,0,0,0,517.29,1393.87Zm0-27.84a11.58,11.58,0,1,1-11.58,11.58A11.59,11.59,0,0,1,517.29,1366Z"/></g><g id="_Group_9" data-name="&lt;Group&gt;"><path id="_Compound_Path_9" data-name="&lt;Compound Path&gt;" class="cls-2" d="M894.19,1211.41h70.65a2.34,2.34,0,0,0,2.34-2.34v-49.8a2.34,2.34,0,0,0-2.34-2.34h-19v-7.73a2.34,2.34,0,0,0-2.34-2.34H924.2a2.34,2.34,0,0,0-2.34,2.34v7.73h-8.49v-.9a2.34,2.34,0,0,0-2.34-2.34h-6.55a2.34,2.34,0,0,0-2.34,2.34v.9h-7.95a2.34,2.34,0,0,0-2.34,2.34v49.8A2.34,2.34,0,0,0,894.19,1211.41Zm32.35-59.87H941.2v5.39H926.54Zm-30,10.07h66v45.12h-66Z"/><path id="_Compound_Path_10" data-name="&lt;Compound Path&gt;" class="cls-2" d="M939.91,1166.31a18,18,0,1,0,18,18A18.07,18.07,0,0,0,939.91,1166.31Zm0,31.41a13.37,13.37,0,1,1,13.37-13.37A13.38,13.38,0,0,1,939.91,1197.72Z"/><path id="_Compound_Path_11" data-name="&lt;Compound Path&gt;" class="cls-2" d="M939.91,1174.73a9.62,9.62,0,1,0,9.62,9.62A9.63,9.63,0,0,0,939.91,1174.73Zm0,14.56a4.94,4.94,0,1,1,4.94-4.94A4.95,4.95,0,0,1,939.91,1189.3Z"/><path id="_Compound_Path_12" data-name="&lt;Compound Path&gt;" class="cls-2" d="M914.77,1164h-13.1a2.34,2.34,0,0,0-2.34,2.34v7.91a2.34,2.34,0,0,0,2.34,2.34h13.1a2.34,2.34,0,0,0,2.34-2.34v-7.91A2.34,2.34,0,0,0,914.77,1164Zm-2.34,7.91H904v-3.23h8.42Z"/></g><g id="_Group_10" data-name="&lt;Group&gt;"><path id="_Compound_Path_13" data-name="&lt;Compound Path&gt;" class="cls-2" d="M716.13,1432.58a43.84,43.84,0,0,0,6.43-87.2,7,7,0,1,0-12.52,0,43.83,43.83,0,0,0,6.08,87.24Zm.18-92.8a2.36,2.36,0,1,1-2.36,2.36A2.37,2.37,0,0,1,716.31,1339.78Zm-.18,9.81A39.16,39.16,0,1,1,677,1388.74,39.2,39.2,0,0,1,716.13,1349.59Z"/><path id="_Compound_Path_14" data-name="&lt;Compound Path&gt;" class="cls-2" d="M716.13,1421.21a32.47,32.47,0,1,0-32.47-32.47A32.51,32.51,0,0,0,716.13,1421.21Zm28.73-32.47A28.73,28.73,0,1,1,716.13,1360,28.76,28.76,0,0,1,744.86,1388.74Z"/><path id="_Compound_Path_15" data-name="&lt;Compound Path&gt;" class="cls-2" d="M701.88,1405.34a.93.93,0,0,0,.53-.17l12.15-8.39a8.29,8.29,0,0,0,1.57.15,8.2,8.2,0,0,0,8.19-8.19c0-.27,0-.54,0-.81l10.31-16.26a.94.94,0,0,0-1.29-1.29l-16.15,10.24a8.17,8.17,0,0,0-8.77,10.75l-7.3,12.56a.94.94,0,0,0,.81,1.41Zm17.67-24,11.22-7.11-7.14,11.26A8.24,8.24,0,0,0,719.55,1381.31Zm-3.42,3.92a3.51,3.51,0,1,1-3.51,3.51A3.52,3.52,0,0,1,716.13,1385.23ZM712.37,1396l-7.58,5.24,4.58-7.88A8.25,8.25,0,0,0,712.37,1396Z"/><path id="_Path_6" data-name="&lt;Path&gt;" class="cls-2" d="M688.68,1388.74a.94.94,0,0,0,.94.94h6.92a.94.94,0,1,0,0-1.87h-6.92A.94.94,0,0,0,688.68,1388.74Z"/><path id="_Path_7" data-name="&lt;Path&gt;" class="cls-2" d="M736.1,1389.68H743a.94.94,0,0,0,0-1.87H736.1a.94.94,0,1,0,0,1.87Z"/><path id="_Path_8" data-name="&lt;Path&gt;" class="cls-2" d="M716.31,1369.9a.94.94,0,0,0,.94-.94V1362a.94.94,0,0,0-1.87,0V1369A.94.94,0,0,0,716.31,1369.9Z"/><path id="_Path_9" data-name="&lt;Path&gt;" class="cls-2" d="M716.31,1407.59a.94.94,0,0,0-.94.94v6.92a.94.94,0,0,0,1.87,0v-6.92A.94.94,0,0,0,716.31,1407.59Z"/></g><g id="_Group_11" data-name="&lt;Group&gt;"><path id="_Compound_Path_16" data-name="&lt;Compound Path&gt;" class="cls-2" d="M944.41,1370.89a30.3,30.3,0,1,0-58.89,0,45.31,45.31,0,0,0,3.31,11.79c3,6.25,15.51,26.9,21.26,36.31-7.78,1-11.39,4.33-11.39,7.49,0,3.75,5.09,7.79,16.26,7.79s16.26-4,16.26-7.79c0-3.15-3.61-6.5-11.39-7.49,5.75-9.4,18.28-30.05,21.26-36.31A45.32,45.32,0,0,0,944.41,1370.89Zm-17.87,55.58c-.32.89-4.23,3.11-11.58,3.11s-11.35-2.28-11.58-3.08c.21-.78,3.4-2.69,9.44-3.07l.15.25a2.34,2.34,0,0,0,4,0l.15-.25C923.07,1423.81,926.26,1425.68,926.55,1426.47Zm-33.49-45.81a41.7,41.7,0,0,1-2.93-10.62c0-.06,0-.12,0-.18a25.62,25.62,0,1,1,49.75,0c0,.06,0,.12,0,.18a41.74,41.74,0,0,1-2.93,10.62c-3,6.31-16.72,28.85-21.91,37.32C909.78,1409.51,896.07,1387,893.06,1380.66Z"/><path id="_Compound_Path_17" data-name="&lt;Compound Path&gt;" class="cls-2" d="M915,1346.59a16.26,16.26,0,1,0,16.26,16.26A16.28,16.28,0,0,0,915,1346.59Zm-11.58,16.26A11.58,11.58,0,1,1,915,1374.43,11.6,11.6,0,0,1,903.39,1362.85Z"/></g><g id="_Group_12" data-name="&lt;Group&gt;"><path id="_Compound_Path_18" data-name="&lt;Compound Path&gt;" class="cls-2" d="M715,1185.77v25c-10.7.22-16.13,2-16.13,5.36,0,3.57,6.22,5.38,18.49,5.38s18.49-1.81,18.49-5.38c0-3.34-5.44-5.14-16.16-5.36v-23.87l19.12-19.11a16.25,16.25,0,1,0-9.28-15.19H687.48a2.34,2.34,0,0,0-1.65,4Zm30.75-44.29a11.58,11.58,0,1,1-3.36,22.66l7.6-7.6a2.34,2.34,0,0,0-1.65-4H734.24A11.59,11.59,0,0,1,745.79,1141.48Zm-3.06,15.75-24.8,24.8-24.8-24.8Zm-25.33,59.55a65.17,65.17,0,0,1-10.12-.7,73.29,73.29,0,0,1,20.24,0A65.16,65.16,0,0,1,717.4,1216.78Z"/></g><g id="_Group_13" data-name="&lt;Group&gt;"><path id="_Compound_Path_19" data-name="&lt;Compound Path&gt;" class="cls-2" d="M1088.4,1424.28a41.56,41.56,0,0,0,24.22,7.4c.88,0,1.77,0,2.69-.08a47.71,47.71,0,0,0,20-90.31,2.19,2.19,0,0,0-.27-.15l-.19-.08a47.35,47.35,0,0,0-14.68-4.45c-19.8-3.12-32,6.92-32.7,7.53a48.11,48.11,0,0,0-13.59,13.7,2.27,2.27,0,0,0-.33.38,24.82,24.82,0,0,0-1.79,3.18,47.67,47.67,0,0,0,16.66,62.9Zm25.41-83.43c1.27,0,2.52.07,3.76.17a50.55,50.55,0,0,1,13.32,3.44l-9.44,19.87a20.74,20.74,0,0,0-16.52,1.94l-12.71-19.6A42.77,42.77,0,0,1,1113.81,1340.85Zm0,28.08a15,15,0,1,1-6.41,28.49,21.18,21.18,0,0,1-1.84-1.14,2.34,2.34,0,0,0-.52-.26,15,15,0,0,1,8.77-27.09Zm38.09,32.47-19.26-9.82a18.54,18.54,0,0,0-.83-16.06l18.21-12.68C1152.88,1367.64,1159.27,1381.63,1151.9,1401.4ZM1113.81,1427a42.77,42.77,0,0,1-21.64-5.86l12.76-19.68.22.1a22,22,0,0,0,16.48,2.18l9.27,19.51a49.55,49.55,0,0,1-16.36,3.72Zm-37.59-64,18.06,12.57a18.55,18.55,0,0,0-.8,16.13l-17.61,9.68c-7.22-19.28-2.23-33.15.28-38.26Zm21.24,31.85a19.79,19.79,0,0,0,3.58,4l-12.78,19.71a43.39,43.39,0,0,1-11.33-12.44Zm37.69,26.48L1125,1400a19.79,19.79,0,0,0,4.7-4.65l21,10.69A43.37,43.37,0,0,1,1135.16,1421.27Zm-6-49.61a19.82,19.82,0,0,0-4.16-3.89l10.1-21.26a43.39,43.39,0,0,1,13.28,11.77Zm-40.85-22.42,12.78,19.71a19.81,19.81,0,0,0-3.15,3.41L1078.73,1359A43.4,43.4,0,0,1,1088.31,1349.24Z"/></g><g id="_Group_14" data-name="&lt;Group&gt;"><path id="_Compound_Path_20" data-name="&lt;Compound Path&gt;" class="cls-2" d="M264.73,1580.43a21.67,21.67,0,0,0,10.61,18.62,18.14,18.14,0,0,0,.82,18.2,2.34,2.34,0,0,0,2,1.08h88.81a2.34,2.34,0,0,0,2-1.16,23.56,23.56,0,0,0-24.55-35.06,28.62,28.62,0,0,0-36.83-6.25,21.67,21.67,0,0,0-42.84,4.57Zm21.67-17A17,17,0,0,1,303.31,1579a28.43,28.43,0,0,0-7.46,10.73A18.15,18.15,0,0,0,278,1595.2a17,17,0,0,1,8.36-31.76Zm36,13a23.68,23.68,0,0,1,19.19,9.67,2.34,2.34,0,0,0,2.45.88,18.88,18.88,0,0,1,21.51,26.68H279.47a13.53,13.53,0,0,1,17-18.81,2.34,2.34,0,0,0,3.1-1.5A23.74,23.74,0,0,1,322.39,1576.42Z"/></g><g id="_Group_15" data-name="&lt;Group&gt;"><path id="_Compound_Path_21" data-name="&lt;Compound Path&gt;" class="cls-2" d="M952.65,1566.78h-11.7a18.55,18.55,0,0,0-15.13,7.72H909.69a18.55,18.55,0,0,0-15.13-7.72h-11.7c-7.29,0-18.16,4.06-22.74,10.11a9.3,9.3,0,0,0-1.88,8.32c.54,1.92,3.24,11,3.35,11.36a1.87,1.87,0,0,0,.16.37c6.62,12,17.61,13.38,25.3,13.38h7.52A18.49,18.49,0,0,0,913.15,1592v-2.66h9.22V1592a18.49,18.49,0,0,0,18.58,18.35h7.52c7.69,0,18.68-1.39,25.3-13.38a1.88,1.88,0,0,0,.16-.37c.11-.39,2.81-9.45,3.35-11.36a9.3,9.3,0,0,0-1.88-8.32C970.81,1570.84,959.93,1566.78,952.65,1566.78Zm21,17.42c-.49,1.74-2.87,9.75-3.28,11.11-5.68,10.1-15.22,11.27-21.92,11.27h-7.52a14.74,14.74,0,0,1-14.84-14.6v-4.53a1.87,1.87,0,0,0-1.87-1.87h-13a1.87,1.87,0,0,0-1.87,1.87V1592a14.74,14.74,0,0,1-14.84,14.6H887c-6.7,0-16.25-1.17-21.92-11.27-.41-1.36-2.79-9.38-3.28-11.11a5.57,5.57,0,0,1,1.26-5c3.74-4.94,13.52-8.63,19.76-8.63h11.7a14.82,14.82,0,0,1,12.56,6.85,1.87,1.87,0,0,0,1.58.86h18.11a1.87,1.87,0,0,0,1.58-.86,14.82,14.82,0,0,1,12.56-6.85h11.7c6.24,0,16,3.69,19.76,8.63A5.57,5.57,0,0,1,973.67,1584.19Z"/><path id="_Compound_Path_22" data-name="&lt;Compound Path&gt;" class="cls-2" d="M890.84,1575H884c-4.47,0-11.15,2.51-14,6.25a6.21,6.21,0,0,0-1.23,5.56c.32,1.14,2,6.69,2,6.69a1.86,1.86,0,0,0,.16.37c4.56,8.26,12.82,8.26,15.54,8.26h4.42a11.63,11.63,0,0,0,11.69-11.55v-4A11.63,11.63,0,0,0,890.84,1575Zm7.95,11.55v4a7.89,7.89,0,0,1-7.95,7.81h-4.42c-4,0-9.06-.7-12.16-6.15-.3-1-1.62-5.44-1.9-6.43a2.43,2.43,0,0,1,.61-2.29c2-2.68,7.58-4.76,11-4.76h6.87A7.89,7.89,0,0,1,898.79,1586.54Z"/><path id="_Compound_Path_23" data-name="&lt;Compound Path&gt;" class="cls-2" d="M951.55,1575h-6.87A11.64,11.64,0,0,0,933,1586.54v4a11.64,11.64,0,0,0,11.69,11.55h4.42c2.72,0,11,0,15.54-8.26a1.89,1.89,0,0,0,.16-.37s1.65-5.55,2-6.69a6.21,6.21,0,0,0-1.23-5.56C962.7,1577.5,956,1575,951.55,1575Zm-2.45,23.38h-4.42a7.89,7.89,0,0,1-7.95-7.81v-4a7.89,7.89,0,0,1,7.95-7.81h6.87c3.42,0,9,2.08,11,4.76a2.44,2.44,0,0,1,.61,2.29h0c-.28,1-1.6,5.44-1.9,6.43C958.15,1597.66,953.13,1598.37,949.09,1598.37Z"/></g><g id="_Group_16" data-name="&lt;Group&gt;"><path id="_Path_10" data-name="&lt;Path&gt;" class="cls-2" d="M685.51,1568.51a.69.69,0,0,0-.78-.62c-.63.07-1.14.15-1.53.21s-.83.15-.85.16a.7.7,0,0,0,.15,1.39l.15,0s.84-.18,2.24-.35l.06,0A.69.69,0,0,0,685.51,1568.51Z"/><path id="_Path_11" data-name="&lt;Path&gt;" class="cls-2" d="M749.07,1601.63c-.27.24-.55.46-.83.68a.7.7,0,0,0,.83,1.13l0,0q.45-.35.9-.74a27,27,0,0,0,2.68-2.68.7.7,0,0,0-1.06-.92q-.79.91-1.63,1.7Q749.54,1601.22,749.07,1601.63Z"/><path id="_Path_12" data-name="&lt;Path&gt;" class="cls-2" d="M711.06,1577.31a.7.7,0,0,0,1-1c-.47-.48-1-.92-1.48-1.36-.3-.27-.62-.52-.94-.77s-.9-.72-1.37-1.05a.7.7,0,0,0-.8,1.15,25.76,25.76,0,0,1,2.17,1.72c.32.28.63.57.94.86S710.91,1577.16,711.06,1577.31Z"/><path id="_Path_13" data-name="&lt;Path&gt;" class="cls-2" d="M716.44,1585a.7.7,0,1,0,1.26-.62c-.5-1-1-2-1.63-2.9-.28-.46-.56-.92-.86-1.35l-.07-.07a.69.69,0,0,0-1.08.87c.38.54.73,1.11,1.08,1.69s.64,1.12.94,1.69C716.19,1584.54,716.33,1584.76,716.44,1585Z"/><path id="_Path_14" data-name="&lt;Path&gt;" class="cls-2" d="M726.63,1601.74a.68.68,0,0,0,.8-.13.7.7,0,0,0,0-1q-.4-.39-.79-.81c-.32-.34-.63-.69-.94-1.05q-.69-.81-1.35-1.7a.7.7,0,0,0-1.13.84,31.85,31.85,0,0,0,2.48,3c.25.26.5.52.75.76A.68.68,0,0,0,726.63,1601.74Z"/><path id="_Path_15" data-name="&lt;Path&gt;" class="cls-2" d="M721.16,1594.12a.69.69,0,0,0,.22-.06.66.66,0,0,0,.13,0,.7.7,0,0,0,.26-1c-.13-.24-.26-.49-.39-.73-.32-.59-.63-1.19-.94-1.81s-.55-1.13-.81-1.71a.7.7,0,1,0-1.28.57c.65,1.47,1.36,2.86,2.09,4.17l.1.2A.7.7,0,0,0,721.16,1594.12Z"/><path id="_Path_16" data-name="&lt;Path&gt;" class="cls-2" d="M694.35,1569.37h.09a.7.7,0,0,0,.09-1.4c-.63-.08-1.27-.14-1.92-.19l-.94-.07c-.68,0-1.36-.07-2-.08h0a.7.7,0,0,0,0,1.4c.69,0,1.38,0,2.06.08l.94.07C693.2,1569.25,693.78,1569.3,694.35,1569.37Z"/><path id="_Path_17" data-name="&lt;Path&gt;" class="cls-2" d="M754.7,1596.22a.7.7,0,0,0,.38.11.71.71,0,0,0,.23-.06.68.68,0,0,0,.36-.26c.42-.66.84-1.34,1.23-2a.7.7,0,0,0-1.22-.69c-.12.21-.25.4-.37.61-.27.46-.54.92-.82,1.36A.7.7,0,0,0,754.7,1596.22Z"/><path id="_Compound_Path_24" data-name="&lt;Compound Path&gt;" class="cls-2" d="M697.92,1540.81a1.4,1.4,0,0,0-1.38,0l-27.06,14.09a1.4,1.4,0,0,0-.76,1.25v77.82a1.4,1.4,0,0,0,2.05,1.24l27.06-14.09a1.4,1.4,0,0,0,.76-1.24V1570a.69.69,0,0,0,.39.29,29.52,29.52,0,0,1,4.22,1.54V1621a1.4,1.4,0,0,0,.76,1.25L731,1636.33a1.4,1.4,0,0,0,2.05-1.25v-29a16.09,16.09,0,0,0,1.85.64l.18,0a.7.7,0,0,0,.18-1.38,14.94,14.94,0,0,1-2.22-.8v-47.31a1.41,1.41,0,0,0-.76-1.25l-27.06-14.09a1.4,1.4,0,0,0-2.05,1.25v27.18a31,31,0,0,0-3.84-1.38.69.69,0,0,0-.77.29V1542A1.4,1.4,0,0,0,697.92,1540.81ZM695.79,1619l-3.17,1.65-.94.49-4.56,2.37-.94.49-4.4,2.29-.58.3-4.68,2.44-.51.27-4.49,2.34V1557L681,1552l.4-.21,14.42-7.51Zm10.22-73.5,3.63,1.89.94.49,4.56,2.37.94.49,4.37,2.28.94.49,8.88,4.62v45.46a.68.68,0,0,0-.15.16.69.69,0,0,0,.15.9v28.14l-3.63-1.89-.94-.49-4.31-2.24-.93-.49-4.37-2.28-.94-.49-4.56-2.37-.94-.49-3.63-1.89Z"/><path id="_Compound_Path_25" data-name="&lt;Compound Path&gt;" class="cls-2" d="M737.38,1556.1v77.82a1.4,1.4,0,0,0,2.05,1.24l15.46-8,.31-.16,4.78-2.49.83-.43,5.69-3a1.4,1.4,0,0,0,.76-1.24V1542a1.4,1.4,0,0,0-2.05-1.25l-27.06,14.09A1.41,1.41,0,0,0,737.38,1556.1ZM764.44,1619l-3.63,1.89-.94.49-4.56,2.37-.94.49L750,1626.5l-.94.49-4.31,2.24-.94.49-3.63,1.89v-24.44a15.27,15.27,0,0,0,3.63-.81c.31-.11.63-.23.94-.36l.06,0a.7.7,0,0,0,.37-.92.69.69,0,0,0-.43-.38.7.7,0,0,0-.49,0l-.44.17a14,14,0,0,1-3.63.9V1557l3.63-1.89.74-.38,4.51-2.35.94-.49,4.37-2.28.94-.49,4.56-2.37.94-.49,3.63-1.89Z"/></g><g id="_Group_17" data-name="&lt;Group&gt;"><path id="_Compound_Path_26" data-name="&lt;Compound Path&gt;" class="cls-2" d="M1160.53,1632.18a2.34,2.34,0,0,0,0-2.35l-37.28-63.08-3-5.24,8.13-14.27a2.34,2.34,0,0,0-4.07-2.32l-6.75,11.85-5.67-10a2.34,2.34,0,1,0-4.07,2.31l7,12.37-1.69,3-38.63,65.36a2.34,2.34,0,0,0,2,3.53h81.93A2.34,2.34,0,0,0,1160.53,1632.18Zm-58.72-3.53,15.72-26.6,15.72,26.6Zm-2.69-31.2,5.16-8.73,10.91-18.46v26.55l-.38.64-18.46,31.23h-15.69Zm39.58,31.23-18.46-31.23-.38-.64v-26.55l10.91,18.46,5.16,8.73,18.46,31.23Z"/></g><g id="_Group_18" data-name="&lt;Group&gt;"><path id="_Compound_Path_27" data-name="&lt;Compound Path&gt;" class="cls-2" d="M1305,1394.36l33.16,17.23a2.34,2.34,0,0,0,3-3.4l-7.75-11.28a5,5,0,0,0,.52-.81l1.65-3.17a4.88,4.88,0,0,0-8.35-5l-3.45-5,1.35-2.61a4.88,4.88,0,0,0-7.34-6.11l-1-1.5c9-18.56,14.84-39.6,8.27-43s-21.45,13.28-31.58,31.4l-2.56,0a4.89,4.89,0,0,0-9.19-2.87l-1.55,3-6.06.06a4.89,4.89,0,0,0-8.76-4.33l-1.65,3.17a4.87,4.87,0,0,0-.43,1.27l-12.9.13a2.34,2.34,0,0,0-1.05,4.42l33.17,17.24c-3,7.33-4.18,14.39-5.15,20.15-.33,2-.65,3.85-1,5.55l-17.37,5.49a2.34,2.34,0,0,0,.83,4.57c.16,0,16.62-.67,29.89,15.68a2.34,2.34,0,0,0,4-2.18l-5.48-17.33,1.92-2.1A127.9,127.9,0,0,0,1305,1394.36Zm-35,21.4,9-2.85a2.34,2.34,0,0,0,1.57-1.69c.52-2.16.92-4.58,1.35-7.15,1.07-6.34,2.27-13.53,5.68-21a2.34,2.34,0,0,0-1.05-3l-26.79-13.92,5.05-.05a4.77,4.77,0,0,0,3.2,1.22,4.83,4.83,0,0,0,3.29-1.29l8.74-.09a4.89,4.89,0,0,0,8.68,0l.06-.11,6.06-.06a2.34,2.34,0,0,0,2-1.22c11.1-20.34,22.91-30.43,25.94-30.64,1.26,2.33-.07,16.1-10.87,38a2.34,2.34,0,0,0,.17,2.36l2.92,4.25-.25.49a4.89,4.89,0,0,0,4.34,7.15,5,5,0,0,0,1.08-.13l4.64,6.75a4.88,4.88,0,0,0,4.12,6l3,4.42-26.79-13.92a2.34,2.34,0,0,0-3.1.89c-4.84,8.22-10.7,14.61-15.41,19.74-1,1.11-2,2.16-2.85,3.14a2.34,2.34,0,0,0-.48,2.26l2.94,9.3A44.79,44.79,0,0,0,1270,1415.76Zm-3-53.94,1.65-3.17a1.15,1.15,0,0,1,2,1.06l-1.65,3.17h0a1.15,1.15,0,1,1-2-1.06Zm18-1.89a1.15,1.15,0,0,1,1.55-.49,1.15,1.15,0,0,1,.49,1.55l-1.65,3.17a1.15,1.15,0,0,1-2-1.06Zm35.41,17a1.16,1.16,0,0,1,.35-.05,1.15,1.15,0,0,1,1,1.68l-1.65,3.17a1.15,1.15,0,0,1-2-1.06h0l1.64-3.17A1.14,1.14,0,0,1,1320.41,1376.92Zm8.13,16.39,1.65-3.17a1.15,1.15,0,1,1,2,1.06l-1.65,3.17a1.14,1.14,0,0,1-.67.57,1.16,1.16,0,0,1-.88-.08,1.15,1.15,0,0,1-.49-1.55Z"/></g><g id="_Group_19" data-name="&lt;Group&gt;"><path id="_Compound_Path_28" data-name="&lt;Compound Path&gt;" class="cls-2" d="M1289.93,1131.92a2.34,2.34,0,0,0-2.34,2.34V1221a2.34,2.34,0,0,0,2.34,2.34h9.66a2.34,2.34,0,0,0,2.34-2.34v-86.73a2.34,2.34,0,0,0-2.34-2.34Zm7.32,86.73h-5V1136.6h5Z"/><path id="_Compound_Path_29" data-name="&lt;Compound Path&gt;" class="cls-2" d="M1340.91,1184.84l8.19-7.25a2.34,2.34,0,0,0,0-3.5l-8.19-7.25a2.33,2.33,0,0,0-1.55-.59H1306.6a2.34,2.34,0,0,0-2.34,2.34v14.51a2.34,2.34,0,0,0,2.34,2.34h32.76A2.34,2.34,0,0,0,1340.91,1184.84Zm-32-13.92h29.53l5.55,4.91-5.55,4.91h-29.53Z"/><path id="_Compound_Path_30" data-name="&lt;Compound Path&gt;" class="cls-2" d="M1306.6,1142.53a2.34,2.34,0,0,0-2.34,2.34v14.51a2.34,2.34,0,0,0,2.34,2.34h32.76a2.33,2.33,0,0,0,1.55-.59l8.19-7.25a2.34,2.34,0,0,0,0-3.5l-8.19-7.25a2.34,2.34,0,0,0-1.55-.59Zm2.34,14.51v-9.83h29.53l5.55,4.91-5.55,4.91Z"/><path id="_Compound_Path_31" data-name="&lt;Compound Path&gt;" class="cls-2" d="M1248.63,1161.13a2.34,2.34,0,0,0,1.55.59h32.76a2.34,2.34,0,0,0,2.34-2.34v-14.51a2.34,2.34,0,0,0-2.34-2.34h-32.76a2.34,2.34,0,0,0-1.55.59l-8.19,7.25a2.34,2.34,0,0,0,0,3.5Zm32-13.92V1157h-29.53l-5.55-4.91,5.55-4.91Z"/></g><g id="_Group_20" data-name="&lt;Group&gt;"><path id="_Compound_Path_32" data-name="&lt;Compound Path&gt;" class="cls-2" d="M1504.07,1155.77a9.65,9.65,0,1,0-2.26-.27A9.73,9.73,0,0,0,1504.07,1155.77Zm-2.6-13.84a4.94,4.94,0,1,1-2.22,3.06A4.91,4.91,0,0,1,1501.47,1141.93Z"/><path id="_Compound_Path_33" data-name="&lt;Compound Path&gt;" class="cls-2" d="M1450.34,1187.89l8.14,1.33a34.63,34.63,0,0,0,66.7,16l7.85,2.51a2.34,2.34,0,0,0,2.79-3.3l-6.76-13.1a2.34,2.34,0,0,0-3.15-1l-13.1,6.76a2.34,2.34,0,0,0,.36,4.31l7.54,2.41a30,30,0,0,1-27.56,18.7l14-58.55a18,18,0,1,0-13.94-3.34l-14,58.55a30,30,0,0,1-16.1-29.16l7.81,1.27a2.4,2.4,0,0,0,.38,0,2.34,2.34,0,0,0,1.9-3.71l-8.61-12a2.34,2.34,0,0,0-3.27-.53l-12,8.61a2.34,2.34,0,0,0,1,4.21Zm75.63,7.63,3.1,6-9.1-2.9Zm-27.82-35.42a2.34,2.34,0,0,0-1.06-2.54,13.37,13.37,0,1,1,8,1.91,2.34,2.34,0,0,0-2.1,1.79l-14.38,60.06-4.84-1.16Zm-36,20.14,3.94,5.48-9.42-1.54Z"/></g><g id="_Group_21" data-name="&lt;Group&gt;"><path id="_Compound_Path_34" data-name="&lt;Compound Path&gt;" class="cls-2" d="M1456.54,1597.06c-1.43,4.72-2.2,9.52-.24,11.21.62.54,2.35,1.55,4.91-.56a36.43,36.43,0,0,0,4.06-4.07c11.82,7,28.35,10.52,49.47,10.52a256.48,256.48,0,0,0,33.17-2.39c-.76,8,1.24,19.6,4,21.73a2.86,2.86,0,0,0,1.77.63,2.67,2.67,0,0,0,1.07-.22c1.61-.7,2.09-2.54,2.32-5.08l0-.28c.36-4,.62-6.93,1.62-7.74,1.35-1.09,6.23-.54,10.69.05,2.13.28,6.1.81,7-2.06.48-1.52,1.28-4.06-14.2-12.15-15-37.09-39.59-47.94-57.68-50.49a79.16,79.16,0,0,0-35.78,3.39c-2.94-.13-15.09-.34-20.47,5.15a9,9,0,0,0-2.57,7C1445.52,1573.22,1445,1585.86,1456.54,1597.06Zm1.72-4.95a31.4,31.4,0,0,1-5.75-8.87,24.45,24.45,0,0,0,8,3.53C1460,1587.83,1459.16,1589.79,1458.26,1592.12Zm10,7.83c2-2.6,3.71-5.13,4.8-6.8,14.2,8,25.63,7,36.7,6,3.69-.33,7.18-.65,10.73-.62,8.64.05,17.49,5.2,23,9.11C1518.15,1610.6,1487.65,1610.94,1468.26,1599.95Zm-16.71-32c3.65-3.72,13.76-4,17.34-3.73a2.37,2.37,0,0,0,1-.16,74.84,74.84,0,0,1,33.92-3.3c21.14,3,37.56,15.33,49,36.75q1.12,2.11,2.18,4.34,1.67,3.51,3.17,7.3a2.34,2.34,0,0,0,1.1,1.22,105.16,105.16,0,0,1,9.74,5.68c-7.08-.91-10.75-.92-13.22,1.06-1.6,1.28-2.32,3.07-2.76,5.59a40.13,40.13,0,0,1-.2-12.15,2.33,2.33,0,0,0-.63-2l-.09-.1c-.12-.11-.74-.68-1.77-1.53-.53-.44-1.16-1-1.9-1.52-5.54-4.28-16.58-11.54-27.88-11.61h-.36c-3.66,0-7.3.32-10.81.64-11.33,1-22,2-35.83-6.46a2.34,2.34,0,0,0-3.21.77c0,.07-2.72,4.38-6,8.66-.48.62-1,1.24-1.46,1.84s-1,1.22-1.54,1.79-.86.95-1.28,1.38c.12-.61.29-1.29.47-2s.42-1.58.67-2.42.49-1.6.76-2.4a41.92,41.92,0,0,1,3-7.22c1.08-1.8,2.56-4.27.7-5.87a2.66,2.66,0,0,0-3.24-.15c-2.69-.54-10.79-2.78-12-10,0-.28-.1-.55-.13-.85A4.28,4.28,0,0,1,1451.55,1568Z"/><path id="_Compound_Path_35" data-name="&lt;Compound Path&gt;" class="cls-2" d="M1497.26,1538.45a7.45,7.45,0,0,0-5.42-5.71,5.67,5.67,0,0,0-5.92,2.39c-3.07,4.14.67,7.6,2.67,9.46.52.48,1,.94,1.37,1.34,1.67,1.88,2,3.62,2.43,6.26l.17,1a1.87,1.87,0,0,0,1.61,1.52h.24a1.87,1.87,0,0,0,1.7-1.09,3.12,3.12,0,0,0,.26-1.73,42.07,42.07,0,0,1,.55-4.48C1497.38,1544.41,1497.86,1541.35,1497.26,1538.45Zm-3.7,6a12.7,12.7,0,0,0-.8-1c-.48-.54-1-1.06-1.63-1.61-2.67-2.47-3.08-3.3-2.21-4.48a2.1,2.1,0,0,1,1.68-1,1.93,1.93,0,0,1,.42,0,3.71,3.71,0,0,1,2.56,2.81A16.19,16.19,0,0,1,1493.56,1544.44Z"/><path id="_Compound_Path_36" data-name="&lt;Compound Path&gt;" class="cls-2" d="M1501,1542.26h1.87c0-.7,1.14-2,3-3a15.84,15.84,0,0,1,3.63-.81c2.8-.44,5.44-.85,6.7-2.5a4.72,4.72,0,0,0,.16-5.67,7.44,7.44,0,0,0-7.38-3.16c-5.9,1.5-9.6,9.67-9.9,14.75h0a4,4,0,0,0,0,.42Zm9-11.55a1.45,1.45,0,0,1,.35,0,4.09,4.09,0,0,1,3,1.64,1,1,0,0,1,0,1.32c-.48.49-3,.88-4.32,1.09a22.28,22.28,0,0,0-4.07.88C1506.21,1533.23,1508,1531.22,1510,1530.71Z"/></g><g id="_Group_22" data-name="&lt;Group&gt;"><path id="_Compound_Path_37" data-name="&lt;Compound Path&gt;" class="cls-2" d="M1459.08,1383.07h.12l24.2-.31a9,9,0,0,0,7.78-4.58,2.34,2.34,0,0,0,.35,0h0l8.08-.1a2.32,2.32,0,0,0,.69-.12,9,9,0,0,0,7.82,4.45h.12l24.2-.31a9.13,9.13,0,0,0,7.57-14.08l-12.35-19.19a9.1,9.1,0,0,0-5.45-3.93l-.3-23.77a2.34,2.34,0,0,0-2.34-2.31h0a2.34,2.34,0,0,0-2.31,2.37l.3,23.78a9.08,9.08,0,0,0-5.35,4.06l-11.86,19.5a9.08,9.08,0,0,0-1.33,4.88l-6.61.08a9.08,9.08,0,0,0-1.46-4.84l-12.35-19.19a9.07,9.07,0,0,0-5.45-3.92l-.3-23.78a2.37,2.37,0,0,0-2.37-2.31,2.34,2.34,0,0,0-2.31,2.37l.3,23.78a9.07,9.07,0,0,0-5.35,4.06l-11.86,19.5a9.13,9.13,0,0,0,7.8,13.88Zm-5.35-9.75a5.4,5.4,0,0,1,.75-2.19l3.38-5.55,8.48-13.95a5.36,5.36,0,0,1,4.54-2.59h.07a5.36,5.36,0,0,1,4.53,2.47l8.83,13.73,3.52,5.46a5.4,5.4,0,0,1,.81,2.17,5.39,5.39,0,0,1-5.27,6.14l-24.21.31h-.07a5.39,5.39,0,0,1-5.35-6Zm49.84-2.81,3.38-5.55,8.48-13.95a5.36,5.36,0,0,1,4.54-2.59h.07a5.36,5.36,0,0,1,4.53,2.47l8.83,13.73,3.52,5.47a5.38,5.38,0,0,1,.21,5.47,5.32,5.32,0,0,1-4.68,2.84l-24.2.31h-.07a5.39,5.39,0,0,1-5.35-6A5.4,5.4,0,0,1,1503.57,1370.51Z"/><path id="_Compound_Path_38" data-name="&lt;Compound Path&gt;" class="cls-2" d="M1496.84,1445.8a2.34,2.34,0,0,0,1.6-.63l35.89-33.58.17,13.26a1.87,1.87,0,0,0,1.87,1.85h0a1.87,1.87,0,0,0,1.85-1.9l-.21-16.73a2.34,2.34,0,0,0-2.38-3.66c-25.2,5.37-79.59,1-80.13,1a2.33,2.33,0,0,0-2,3.75l.21,16.74a1.87,1.87,0,0,0,1.87,1.85h0a1.87,1.87,0,0,0,1.85-1.9l-.17-13.35,38,32.76A2.33,2.33,0,0,0,1496.84,1445.8Zm32.06-35.54-32.13,30.06-34.57-29.76C1476.17,1411.45,1507.58,1413,1528.9,1410.26Z"/></g><g id="_Group_23" data-name="&lt;Group&gt;"><path id="_Compound_Path_39" data-name="&lt;Compound Path&gt;" class="cls-2" d="M1379,1573.58h-40.79v-35.76a2.34,2.34,0,0,0-2.34-2.34h-43.81a2.34,2.34,0,0,0-2.34,2.34v15.52h-40.82a2.34,2.34,0,0,0-2.34,2.34v71.44a2.34,2.34,0,0,0,2.34,2.34H1379a2.34,2.34,0,0,0,2.34-2.34v-51.2A2.34,2.34,0,0,0,1379,1573.58Zm-25.48,31.77h7.8v20.37h-7.8Zm23.14,19.44h-12.53v-20.84a1.4,1.4,0,0,0-1.4-1.4h-10.61a1.4,1.4,0,0,0-1.4,1.4v20.84h-12.53v-46.52h38.48ZM1251.26,1558h38.48v66.76h-12.53v-20.84a1.4,1.4,0,0,0-1.4-1.4H1265.2a1.4,1.4,0,0,0-1.4,1.4v20.84h-12.53Zm15.34,47.32h7.8v20.37h-7.8Zm66.92-29.43v48.86h-13.45v-20.84a1.4,1.4,0,0,0-1.4-1.4h-10.61a1.4,1.4,0,0,0-1.4,1.4v20.84h-12.24v-84.62h39.13v35.48A2.19,2.19,0,0,0,1333.53,1575.92Zm-24.06,49.8v-20.37h7.8v20.37Z"/><path id="_Compound_Path_40" data-name="&lt;Compound Path&gt;" class="cls-2" d="M1311.44,1549H1301a1.4,1.4,0,0,0-1.4,1.4v10.48a1.4,1.4,0,0,0,1.4,1.4h10.48a1.4,1.4,0,0,0,1.4-1.4v-10.48A1.4,1.4,0,0,0,1311.44,1549Zm-1.4,10.48h-7.67v-7.67H1310Z"/><path id="_Compound_Path_41" data-name="&lt;Compound Path&gt;" class="cls-2" d="M1327.35,1549h-10.48a1.4,1.4,0,0,0-1.4,1.4v10.48a1.4,1.4,0,0,0,1.4,1.4h10.48a1.4,1.4,0,0,0,1.4-1.4v-10.48A1.4,1.4,0,0,0,1327.35,1549Zm-1.4,10.48h-7.67v-7.67h7.67Z"/><path id="_Compound_Path_42" data-name="&lt;Compound Path&gt;" class="cls-2" d="M1311.44,1566.2H1301a1.4,1.4,0,0,0-1.4,1.4v10.48a1.4,1.4,0,0,0,1.4,1.4h10.48a1.4,1.4,0,0,0,1.4-1.4V1567.6A1.4,1.4,0,0,0,1311.44,1566.2Zm-1.4,10.48h-7.67V1569H1310Z"/><path id="_Compound_Path_43" data-name="&lt;Compound Path&gt;" class="cls-2" d="M1327.35,1566.2h-10.48a1.4,1.4,0,0,0-1.4,1.4v10.48a1.4,1.4,0,0,0,1.4,1.4h10.48a1.4,1.4,0,0,0,1.4-1.4V1567.6A1.4,1.4,0,0,0,1327.35,1566.2Zm-1.4,10.48h-7.67V1569h7.67Z"/><path id="_Compound_Path_44" data-name="&lt;Compound Path&gt;" class="cls-2" d="M1311.44,1583.36H1301a1.4,1.4,0,0,0-1.4,1.4v10.48a1.4,1.4,0,0,0,1.4,1.4h10.48a1.4,1.4,0,0,0,1.4-1.4v-10.48A1.4,1.4,0,0,0,1311.44,1583.36Zm-1.4,10.48h-7.67v-7.67H1310Z"/><path id="_Compound_Path_45" data-name="&lt;Compound Path&gt;" class="cls-2" d="M1327.35,1583.36h-10.48a1.4,1.4,0,0,0-1.4,1.4v10.48a1.4,1.4,0,0,0,1.4,1.4h10.48a1.4,1.4,0,0,0,1.4-1.4v-10.48A1.4,1.4,0,0,0,1327.35,1583.36Zm-1.4,10.48h-7.67v-7.67h7.67Z"/><path id="_Compound_Path_46" data-name="&lt;Compound Path&gt;" class="cls-2" d="M1257.31,1579.49h10.48a1.4,1.4,0,0,0,1.4-1.4V1567.6a1.4,1.4,0,0,0-1.4-1.4h-10.48a1.4,1.4,0,0,0-1.4,1.4v10.48A1.4,1.4,0,0,0,1257.31,1579.49Zm1.4-10.48h7.67v7.67h-7.67Z"/><path id="_Compound_Path_47" data-name="&lt;Compound Path&gt;" class="cls-2" d="M1273.22,1579.49h10.48a1.4,1.4,0,0,0,1.4-1.4V1567.6a1.4,1.4,0,0,0-1.4-1.4h-10.48a1.4,1.4,0,0,0-1.4,1.4v10.48A1.4,1.4,0,0,0,1273.22,1579.49Zm1.4-10.48h7.67v7.67h-7.67Z"/><path id="_Compound_Path_48" data-name="&lt;Compound Path&gt;" class="cls-2" d="M1267.79,1596.65a1.4,1.4,0,0,0,1.4-1.4v-10.48a1.4,1.4,0,0,0-1.4-1.4h-10.48a1.4,1.4,0,0,0-1.4,1.4v10.48a1.4,1.4,0,0,0,1.4,1.4Zm-9.07-10.48h7.67v7.67h-7.67Z"/><path id="_Compound_Path_49" data-name="&lt;Compound Path&gt;" class="cls-2" d="M1273.22,1596.65h10.48a1.4,1.4,0,0,0,1.4-1.4v-10.48a1.4,1.4,0,0,0-1.4-1.4h-10.48a1.4,1.4,0,0,0-1.4,1.4v10.48A1.4,1.4,0,0,0,1273.22,1596.65Zm1.4-10.48h7.67v7.67h-7.67Z"/><path id="_Compound_Path_50" data-name="&lt;Compound Path&gt;" class="cls-2" d="M1344.25,1596.65h10.48a1.4,1.4,0,0,0,1.4-1.4v-10.48a1.4,1.4,0,0,0-1.4-1.4h-10.48a1.4,1.4,0,0,0-1.4,1.4v10.48A1.4,1.4,0,0,0,1344.25,1596.65Zm1.4-10.48h7.67v7.67h-7.67Z"/><path id="_Compound_Path_51" data-name="&lt;Compound Path&gt;" class="cls-2" d="M1360.17,1596.65h10.48a1.4,1.4,0,0,0,1.4-1.4v-10.48a1.4,1.4,0,0,0-1.4-1.4h-10.48a1.4,1.4,0,0,0-1.4,1.4v10.48A1.4,1.4,0,0,0,1360.17,1596.65Zm1.4-10.48h7.67v7.67h-7.67Z"/></g><g id="_Group_24" data-name="&lt;Group&gt;"><path id="_Path_18" data-name="&lt;Path&gt;" class="cls-2" d="M476.74,1604.53a5.46,5.46,0,0,1,10.92,0,2.32,2.32,0,0,0,.25,1A10.13,10.13,0,0,0,508,1605a2.38,2.38,0,0,0,0-.48,5.46,5.46,0,0,1,10.92,0,2.32,2.32,0,0,0,.25,1,10.13,10.13,0,0,0,20.1-.56,2.38,2.38,0,0,0,0-.48,5.46,5.46,0,0,1,10.92,0,2.34,2.34,0,0,0,2.34,2.34h0a2.34,2.34,0,0,0,2.34-2.34,10.14,10.14,0,0,0-20.23-1,2.37,2.37,0,0,0,0,.48,5.46,5.46,0,1,1-10.92,0,2.32,2.32,0,0,0-.25-1,10.13,10.13,0,0,0-20.1.56,2.38,2.38,0,0,0,0,.48,5.46,5.46,0,1,1-10.92,0,2.31,2.31,0,0,0-.25-1,10.13,10.13,0,0,0-20.15,1.53,2.34,2.34,0,0,0,2.34,2.34,2.19,2.19,0,0,0,.29,0A2.33,2.33,0,0,0,476.74,1604.53Z"/><path id="_Compound_Path_52" data-name="&lt;Compound Path&gt;" class="cls-2" d="M543.09,1550V1559H518.61V1550a6,6,0,0,1,11.93,0,2.34,2.34,0,1,0,4.68,0,10.66,10.66,0,0,0-21.29,0v37.72a2.34,2.34,0,1,0,4.68,0v-8.06h24.49v8.06a2.34,2.34,0,1,0,4.68,0V1550a6,6,0,0,1,11.93,0,2.34,2.34,0,1,0,4.68,0,10.66,10.66,0,0,0-21.29,0Zm-24.49,25v-11.23h24.49v11.23Z"/><path id="_Path_19" data-name="&lt;Path&gt;" class="cls-2" d="M544.84,1617.48a10.15,10.15,0,0,0-10.09,9.17,2.38,2.38,0,0,0,0,.48,5.46,5.46,0,1,1-10.92,0,2.32,2.32,0,0,0-.25-1,10.13,10.13,0,0,0-20.1.56,2.38,2.38,0,0,0,0,.48,5.46,5.46,0,1,1-10.92,0,2.31,2.31,0,0,0-.25-1,10.14,10.14,0,0,0-20.15,1.53,2.34,2.34,0,0,0,2.34,2.34l.29,0a2.33,2.33,0,0,0,2.05-2.31,5.46,5.46,0,0,1,10.92,0,2.32,2.32,0,0,0,.25,1,10.13,10.13,0,0,0,20.1-.56,2.37,2.37,0,0,0,0-.48,5.46,5.46,0,0,1,10.92,0,2.32,2.32,0,0,0,.25,1,10.13,10.13,0,0,0,20.1-.56,2.37,2.37,0,0,0,0-.48,5.46,5.46,0,0,1,10.92,0,2.34,2.34,0,0,0,2.34,2.34h0a2.34,2.34,0,0,0,2.34-2.34,10.15,10.15,0,0,0-10.14-10.14Z"/></g><text class="cls-3" transform="translate(798.85 1010.14)">TURISMO</text><text class="cls-4" transform="translate(763.29 212.14)">EDU<tspan class="cls-5" x="112.39" y="0">C</tspan><tspan class="cls-6" x="151.88" y="0">A</tspan><tspan class="cls-7" x="190.73" y="0">CIÓN</tspan></text><g id="_Group_25" data-name="&lt;Group&gt;"><path id="_Compound_Path_53" data-name="&lt;Compound Path&gt;" class="cls-2" d="M239.13,376.49a5.45,5.45,0,0,0-3.2,8.63l-2.28,13.48a2,2,0,0,0,2,2.32h9.32a2,2,0,0,0,2-2.26L245,384.61a5.44,5.44,0,0,0-1.85-7.43v-7.3l12.28,5.33v30.5a6.82,6.82,0,0,0,6.82,6.82h56.05a6.82,6.82,0,0,0,6.82-6.82V373.35l29.26-12.69a2,2,0,0,0-.15-3.7l-66.55-22.72a2,2,0,0,0-1.35,0c-22.78,8.63-60.2,22.38-63.68,22.59a2,2,0,0,0-.78,3.81l17.3,7.5ZM238,397l2-12.13a2,2,0,0,0-.69-1.86,1.48,1.48,0,1,1,2.43-1.14,1.47,1.47,0,0,1-.37,1,2,2,0,0,0-.47,1.58L242.66,397Zm83.14,8.75a2.84,2.84,0,0,1-2.84,2.84H262.21a2.84,2.84,0,0,1-2.84-2.84V376.93l27.93,12.12a2,2,0,0,0,1.58,0l32.22-14Zm-92.44-46.42C243,354.79,277.6,341.79,287,338.22l61,20.83-60,26L248.5,367.88l33.43-4.41a12.06,12.06,0,0,0,6.16,1.45c4.61,0,8.09-1.84,8.09-4.27s-3.48-4.27-8.09-4.27c-4,0-7.1,1.37-7.89,3.3l-38.79,5.12ZM282,360.66c0-.93,2.38-2.28,6.1-2.28s6.1,1.35,6.1,2.28-2.38,2.28-6.1,2.28S282,361.59,282,360.66Z"/></g><g id="_Group_26" data-name="&lt;Group&gt;"><path id="_Compound_Path_54" data-name="&lt;Compound Path&gt;" class="cls-2" d="M1367.33,765h-26.67V748.59c0-2.16-2.1-3.86-4.78-3.86a6.36,6.36,0,0,0-.84.06,5.46,5.46,0,0,0-.77-.06h-36.59c-2.68,0-4.78,1.7-4.78,3.86V765h-26.67a8,8,0,0,0-8,8v35.95a8,8,0,0,0,7.49,8v28.74c0,4.4,3.21,8,7.15,8h87.78c3.94,0,7.15-3.58,7.15-8V816.83a8,8,0,0,0,7.49-8V772.93A8,8,0,0,0,1367.33,765Zm-70.45-16.07a2,2,0,0,1,1-.17,1.87,1.87,0,0,0,.35,0h36.07a1.32,1.32,0,0,1,.32,0,2,2,0,0,0,.85,0,2.11,2.11,0,0,1,1.25.13v19.64a1.75,1.75,0,0,1-.8.17,1.78,1.78,0,0,1-.8-.17V753.46a2,2,0,0,0-2-2h-32.61a2,2,0,0,0-2,2v15.06a1.78,1.78,0,0,1-.8.17,1.74,1.74,0,0,1-.8-.17Zm34.22,6.57V765h-28.64v-9.5Zm32.75,90.12c0,2.21-1.43,4-3.18,4h-87.78c-1.75,0-3.18-1.8-3.18-4V816.86h31.22v3.63a8,8,0,0,0,8,8h14.23a8,8,0,0,0,8-8v-3.63h32.72Zm-58.93-25.09V809.25a4,4,0,0,1,4-4h14.23a4,4,0,0,1,4,4v11.23a4,4,0,0,1-4,4h-14.23A4,4,0,0,1,1304.91,820.48Zm66.42-11.61a4,4,0,0,1-4,4h-36.21v-3.63a8,8,0,0,0-8-8h-14.23a8,8,0,0,0-8,8v3.63h-34.71a4,4,0,0,1-4-4V772.93a4,4,0,0,1,4-4h26.69c.08,2.11,2.13,3.74,4.76,3.74s4.69-1.64,4.77-3.74h28.67c.08,2.11,2.13,3.74,4.77,3.74s4.69-1.64,4.77-3.74h26.69a4,4,0,0,1,4,4Z"/><path id="_Compound_Path_55" data-name="&lt;Compound Path&gt;" class="cls-2" d="M1316,821.85a7,7,0,1,0-7-7A7,7,0,0,0,1316,821.85Zm0-12a5,5,0,1,1-5,5A5,5,0,0,1,1316,809.87Z"/></g><g id="_Group_27" data-name="&lt;Group&gt;"><path id="_Compound_Path_56" data-name="&lt;Compound Path&gt;" class="cls-2" d="M1153.95,580.18h-26.44v-10.4a8.57,8.57,0,0,0-1.13-4.29,1.74,1.74,0,0,0,.91-2.62l-19.93-30.1V528l12.31-5.07a1.74,1.74,0,0,0,0-3.22l-13.58-5.6a1.74,1.74,0,0,0-2.4,1.61v11.19a1.74,1.74,0,0,0,.19.77v5.27l-19.83,30a1.74,1.74,0,0,0,.91,2.62,8.56,8.56,0,0,0-1.13,4.29v10.4h-29.41a6.61,6.61,0,0,0-6.61,6.61V618a6.61,6.61,0,0,0,6.61,6.61h99.52a6.61,6.61,0,0,0,6.61-6.61V586.78A6.62,6.62,0,0,0,1153.95,580.18Zm-46.77-61.89,7.27,3-7.27,3Zm-1.51,18.24,16.93,25.57h-33.85Zm4.06,84.29H1100V601.49h9.72Zm47.34-2.86a3.13,3.13,0,0,1-3.12,3.12h-40.73V599.75a1.74,1.74,0,0,0-1.74-1.74h-13.21a1.74,1.74,0,0,0-1.74,1.74v21.33h-42.1a3.13,3.13,0,0,1-3.12-3.12V586.78a3.13,3.13,0,0,1,3.12-3.12h31.18a1.74,1.74,0,0,0,1.74-1.86c0-.14,0-.28,0-.43V569.78c0-2.28,1.43-4.21,3.12-4.21h30.46c1.69,0,3.12,1.93,3.12,4.21v11.59c0,.14,0,.28,0,.42a1.74,1.74,0,0,0,1.74,1.87h28.2a3.13,3.13,0,0,1,3.12,3.12Z"/><path id="_Compound_Path_57" data-name="&lt;Compound Path&gt;" class="cls-2" d="M1102.62,572.87h-8.71a.87.87,0,0,0-.87.87v8.7a.87.87,0,0,0,.87.87h8.71a.87.87,0,0,0,.87-.87v-8.7A.87.87,0,0,0,1102.62,572.87Zm-.87,8.7h-7v-7h7Z"/><path id="_Compound_Path_58" data-name="&lt;Compound Path&gt;" class="cls-2" d="M1116.58,572.87h-8.7a.87.87,0,0,0-.87.87v8.7a.87.87,0,0,0,.87.87h8.7a.87.87,0,0,0,.87-.87v-8.7A.87.87,0,0,0,1116.58,572.87Zm-.87,8.7h-7v-7h7Z"/><path id="_Compound_Path_59" data-name="&lt;Compound Path&gt;" class="cls-2" d="M1070,597.47h-8.71a.87.87,0,0,0-.87.87V607a.87.87,0,0,0,.87.87H1070a.87.87,0,0,0,.87-.87v-8.7A.87.87,0,0,0,1070,597.47Zm-.87,8.7h-7v-7h7Z"/><path id="_Compound_Path_60" data-name="&lt;Compound Path&gt;" class="cls-2" d="M1083.93,597.47h-8.7a.87.87,0,0,0-.87.87V607a.87.87,0,0,0,.87.87h8.7a.87.87,0,0,0,.87-.87v-8.7A.87.87,0,0,0,1083.93,597.47Zm-.87,8.7h-7v-7h7Z"/><path id="_Compound_Path_61" data-name="&lt;Compound Path&gt;" class="cls-2" d="M1134.71,597.47H1126a.87.87,0,0,0-.87.87V607a.87.87,0,0,0,.87.87h8.71a.87.87,0,0,0,.87-.87v-8.7A.87.87,0,0,0,1134.71,597.47Zm-.87,8.7h-7v-7h7Z"/><path id="_Compound_Path_62" data-name="&lt;Compound Path&gt;" class="cls-2" d="M1148.67,597.47H1140a.87.87,0,0,0-.87.87V607a.87.87,0,0,0,.87.87h8.7a.87.87,0,0,0,.87-.87v-8.7A.87.87,0,0,0,1148.67,597.47Zm-.87,8.7h-7v-7h7Z"/></g><g id="_Group_28" data-name="&lt;Group&gt;"><path id="_Compound_Path_63" data-name="&lt;Compound Path&gt;" class="cls-2" d="M1070,305a8.24,8.24,0,0,0-8.23,8.23V404.3a8.24,8.24,0,0,0,8.23,8.23h68.39a8.24,8.24,0,0,0,8.23-8.23V313.24a8.24,8.24,0,0,0-8.23-8.23Zm73.71,8.23V404.3a5.33,5.33,0,0,1-5.32,5.32H1070a5.33,5.33,0,0,1-5.32-5.32V313.24a5.33,5.33,0,0,1,5.32-5.32h68.39A5.33,5.33,0,0,1,1143.71,313.24Z"/><path id="_Compound_Path_64" data-name="&lt;Compound Path&gt;" class="cls-2" d="M1136.57,317.52h-64.65a2,2,0,0,0-2,2v19.95a2,2,0,0,0,2,2h64.65a2,2,0,0,0,2-2V319.5A2,2,0,0,0,1136.57,317.52Zm-2,19.95h-60.67v-16h60.67Z"/><path id="_Compound_Path_65" data-name="&lt;Compound Path&gt;" class="cls-2" d="M1131.07,378h-12.38a2,2,0,0,0-2,2V402.2a2,2,0,0,0,2,2h12.38a2,2,0,0,0,2-2V380A2,2,0,0,0,1131.07,378Zm-2,22.17h-8.4V382h8.4Z"/><path id="_Compound_Path_66" data-name="&lt;Compound Path&gt;" class="cls-2" d="M1121.32,357.64h7.13c2.19,0,4-2.08,4-4.64s-1.78-4.64-4-4.64h-7.13c-2.19,0-4,2.08-4,4.64S1119.13,357.64,1121.32,357.64Zm0-7.3h7.13c1.07,0,2,1.21,2,2.65s-.9,2.65-2,2.65h-7.13c-1.07,0-2-1.21-2-2.65S1120.25,350.35,1121.32,350.35Z"/><path id="_Compound_Path_67" data-name="&lt;Compound Path&gt;" class="cls-2" d="M1121.32,372.51h7.13c2.19,0,4-2.08,4-4.64s-1.78-4.64-4-4.64h-7.13c-2.19,0-4,2.08-4,4.64S1119.13,372.51,1121.32,372.51Zm0-7.3h7.13c1.07,0,2,1.22,2,2.65s-.9,2.65-2,2.65h-7.13c-1.07,0-2-1.22-2-2.65S1120.25,365.22,1121.32,365.22Z"/><path id="_Compound_Path_68" data-name="&lt;Compound Path&gt;" class="cls-2" d="M1108.3,348.36h-7.13c-2.19,0-4,2.08-4,4.64s1.78,4.64,4,4.64h7.13c2.18,0,4-2.08,4-4.64S1110.48,348.36,1108.3,348.36Zm0,7.3h-7.13c-1.07,0-2-1.21-2-2.65s.9-2.65,2-2.65h7.13c1.07,0,2,1.21,2,2.65S1109.37,355.65,1108.3,355.65Z"/><path id="_Compound_Path_69" data-name="&lt;Compound Path&gt;" class="cls-2" d="M1108.3,363h-7.13c-2.19,0-4,2.08-4,4.64s1.78,4.64,4,4.64h7.13c2.18,0,4-2.08,4-4.64S1110.48,363,1108.3,363Zm0,7.29h-7.13c-1.07,0-2-1.21-2-2.65s.9-2.65,2-2.65h7.13c1.07,0,2,1.22,2,2.65S1109.37,370.27,1108.3,370.27Z"/><path id="_Compound_Path_70" data-name="&lt;Compound Path&gt;" class="cls-2" d="M1088.15,348.36H1081c-2.19,0-4,2.08-4,4.64s1.78,4.64,4,4.64h7.13c2.19,0,4-2.08,4-4.64S1090.33,348.36,1088.15,348.36Zm0,7.3H1081c-1.07,0-2-1.21-2-2.65s.9-2.65,2-2.65h7.13c1.07,0,2,1.21,2,2.65S1089.22,355.65,1088.15,355.65Z"/><path id="_Compound_Path_71" data-name="&lt;Compound Path&gt;" class="cls-2" d="M1088.15,363H1081c-2.19,0-4,2.08-4,4.64s1.78,4.64,4,4.64h7.13c2.19,0,4-2.08,4-4.64S1090.33,363,1088.15,363Zm0,7.29H1081c-1.07,0-2-1.21-2-2.65s.9-2.65,2-2.65h7.13c1.07,0,2,1.22,2,2.65S1089.22,370.27,1088.15,370.27Z"/><path id="_Compound_Path_72" data-name="&lt;Compound Path&gt;" class="cls-2" d="M1088.15,377.59H1081c-2.19,0-4,2.08-4,4.64s1.78,4.64,4,4.64h7.13c2.19,0,4-2.08,4-4.64S1090.33,377.59,1088.15,377.59Zm0,7.3H1081c-1.07,0-2-1.22-2-2.65s.9-2.65,2-2.65h7.13c1.07,0,2,1.21,2,2.65S1089.22,384.89,1088.15,384.89Z"/><path id="_Compound_Path_73" data-name="&lt;Compound Path&gt;" class="cls-2" d="M1088.15,392.21H1081c-2.19,0-4,2.08-4,4.64s1.78,4.64,4,4.64h7.13c2.19,0,4-2.08,4-4.64S1090.33,392.21,1088.15,392.21Zm0,7.3H1081c-1.07,0-2-1.22-2-2.65s.9-2.66,2-2.66h7.13c1.07,0,2,1.22,2,2.66S1089.22,399.5,1088.15,399.5Z"/><path id="_Compound_Path_74" data-name="&lt;Compound Path&gt;" class="cls-2" d="M1107.81,377.59h-7.13c-2.19,0-4,2.08-4,4.64s1.78,4.64,4,4.64h7.13c2.18,0,4-2.08,4-4.64S1110,377.59,1107.81,377.59Zm0,7.3h-7.13c-1.07,0-2-1.22-2-2.65s.9-2.65,2-2.65h7.13c1.07,0,2,1.21,2,2.65S1108.88,384.89,1107.81,384.89Z"/><path id="_Compound_Path_75" data-name="&lt;Compound Path&gt;" class="cls-2" d="M1107.81,392.21h-7.13c-2.19,0-4,2.08-4,4.64s1.78,4.64,4,4.64h7.13c2.18,0,4-2.08,4-4.64S1110,392.21,1107.81,392.21Zm0,7.3h-7.13c-1.07,0-2-1.22-2-2.65s.9-2.66,2-2.66h7.13c1.07,0,2,1.22,2,2.66S1108.88,399.5,1107.81,399.5Z"/></g><g id="_Group_29" data-name="&lt;Group&gt;"><path id="_Compound_Path_76" data-name="&lt;Compound Path&gt;" class="cls-2" d="M290,725.55a6.24,6.24,0,1,0,6.24,6.24A6.25,6.25,0,0,0,290,725.55Zm0,8.5a2.26,2.26,0,1,1,2.27-2.27A2.27,2.27,0,0,1,290,734.06Z"/><path id="_Compound_Path_77" data-name="&lt;Compound Path&gt;" class="cls-2" d="M315.88,718.83a10.7,10.7,0,1,0-10.7,10.7A10.72,10.72,0,0,0,315.88,718.83Zm-10.7,6.73a6.73,6.73,0,1,1,6.73-6.73A6.73,6.73,0,0,1,305.18,725.55Z"/><path id="_Compound_Path_78" data-name="&lt;Compound Path&gt;" class="cls-2" d="M297.44,737.09a7.28,7.28,0,1,0,7.28-7.28A7.29,7.29,0,0,0,297.44,737.09Zm10.59,0a3.31,3.31,0,1,1-3.31-3.31A3.31,3.31,0,0,1,308,737.09Z"/><path id="_Compound_Path_79" data-name="&lt;Compound Path&gt;" class="cls-2" d="M239.42,849.17a8.68,8.68,0,0,0,7.59,4.38h83.3a7.61,7.61,0,0,0,6.59-11.42l-25.17-43.6a3.47,3.47,0,0,1-1.14-1.83L299,776.63V759.78a6.87,6.87,0,0,0-2.41-13.31H278.74a6.87,6.87,0,0,0-2.41,13.31v16.85L264.74,796.7a3.54,3.54,0,0,1-1.1,1.76L239.42,840.4A8.68,8.68,0,0,0,239.42,849.17Zm36.41-95.82a2.9,2.9,0,0,1,2.9-2.9h17.86a2.9,2.9,0,0,1,0,5.8H278.74A2.91,2.91,0,0,1,275.84,753.35Zm4.2,24.81a2,2,0,0,0,.27-1V760.22H295v16.94a2,2,0,0,0,.27,1l11.19,19.37-37.6-.05Zm-37.17,64.23,23.64-40.94,42.36.06,24.6,42.61a3.64,3.64,0,0,1-3.15,5.46H247a4.79,4.79,0,0,1-4.15-7.19Z"/></g><g id="_Group_30" data-name="&lt;Group&gt;"><path id="_Compound_Path_80" data-name="&lt;Compound Path&gt;" class="cls-2" d="M524.31,760.34A9.45,9.45,0,0,0,507,757.78l-13.62,22.73-.09.16-.1.15L460,836.23a9.42,9.42,0,0,0,.29,10.16l-.68,1.14a4,4,0,0,0,6.83,4.09l.68-1.14a8.64,8.64,0,0,0,3.28-.22,9.39,9.39,0,0,0,5.81-4.31l33.19-55.39.09-.17.1-.15.67-1.12.17.15a2.69,2.69,0,0,0,1.62.55,2.65,2.65,0,0,0,.51,0,2.9,2.9,0,0,0,1.91-1.35h0l10.57-17.33a3.21,3.21,0,0,0-.73-4.21,2.85,2.85,0,0,0-.6-.33A9.38,9.38,0,0,0,524.31,760.34ZM464.76,850.6h0a2,2,0,1,1-3.42-2l.34-.56a9,9,0,0,0,3.43,2Zm8.07-6.69h0a5.48,5.48,0,1,1-9.39-5.63l29.43-49.12a9.44,9.44,0,0,0,8.64,5.67c.25,0,.51,0,.77,0Zm33.38-55.72a5.48,5.48,0,0,1-9.4-5.63l13.62-22.74a5.48,5.48,0,1,1,9.4,5.63Zm17.16-18.13L512.8,787.38a.9.9,0,0,1-.58.44.71.71,0,0,1-.57-.14,1,1,0,0,1-.28-.36l11.38-19a.71.71,0,0,1,.39.15A1.23,1.23,0,0,1,523.37,770.05Z"/></g><g id="_Group_31" data-name="&lt;Group&gt;"><path id="_Compound_Path_81" data-name="&lt;Compound Path&gt;" class="cls-2" d="M1276.93,528.37v84.29a12.19,12.19,0,0,0,12.43,11.9h54.82c6.85,0,12.43-4.92,12.43-11V537.34a10.49,10.49,0,0,0-4.79-8.64v-.33a12.19,12.19,0,0,0-12.43-11.9h-50A12.19,12.19,0,0,0,1276.93,528.37Zm4,0a8.22,8.22,0,0,1,8.46-7.93h50a8.21,8.21,0,0,1,8.45,7.93v1.44a2,2,0,0,0,1,1.74,6.76,6.76,0,0,1,3.76,5.8V613.6c0,3.85-3.79,7-8.45,7h-54.82a8.21,8.21,0,0,1-8.46-7.93Z"/><path id="_Compound_Path_82" data-name="&lt;Compound Path&gt;" class="cls-2" d="M1290.57,534.31a2,2,0,0,0,1.26.45h9.76V568a2,2,0,0,0,3.36,1.44l8.23-7.86,8.64,7.89a2,2,0,0,0,3.33-1.47V534.76h19.33a2,2,0,0,0,1.83-1.21c.16-.36,1.49-3.65-.06-6.6-.66-1.26-2.12-2.9-5.29-3.53a2,2,0,0,0-.39,0h-48.73a2.06,2.06,0,0,0-.35,0c-.41.07-4,.79-4.8,3.71C1285.83,530.4,1289.4,533.34,1290.57,534.31Zm1.47-6.94h48.32a2.74,2.74,0,0,1,2.6,3.42h-19.8a2,2,0,0,0-2,2v30.74l-6.68-6.1a2,2,0,0,0-2.71,0l-6.21,5.93v-30.6a2,2,0,0,0-2-2h-11c-2.07-1.83-2-2.64-2-2.65A2.82,2.82,0,0,1,1292,527.36Z"/><path id="_Compound_Path_83" data-name="&lt;Compound Path&gt;" class="cls-2" d="M1309.14,549.49l-.47,2.72a1,1,0,0,0,1.44,1l2.44-1.28,2.44,1.28a1,1,0,0,0,1.44-1l-.47-2.72,2-1.93a1,1,0,0,0-.55-1.7l-2.73-.4-1.22-2.48a1,1,0,0,0-1.78,0l-1.22,2.48-2.73.4a1,1,0,0,0-.55,1.7Zm2.11-2.13a1,1,0,0,0,.75-.54l.56-1.14.56,1.14a1,1,0,0,0,.75.54l1.26.18-.91.89a1,1,0,0,0-.29.88l.22,1.25L1313,550a1,1,0,0,0-.93,0l-1.12.59.22-1.25a1,1,0,0,0-.29-.88l-.91-.89Z"/></g><g id="_Group_32" data-name="&lt;Group&gt;"><path id="_Compound_Path_84" data-name="&lt;Compound Path&gt;" class="cls-2" d="M1552,778a44.47,44.47,0,0,0-63-1h0a44.48,44.48,0,0,0,0,63.89h0a44.53,44.53,0,0,0,63-62.9Zm-61.65,3.27A40.17,40.17,0,0,1,1501.21,807h-21.78A40.17,40.17,0,0,1,1490.32,781.31ZM1479.43,811h21.78a40.18,40.18,0,0,1-10.89,25.7A40.18,40.18,0,0,1,1479.43,811ZM1518,849.53a40.31,40.31,0,0,1-24.8-10.08l.06-.07.52-.58c.32-.35.64-.7.94-1.06s.37-.46.56-.68.55-.67.81-1,.37-.49.55-.74.49-.67.73-1,.35-.53.53-.79.45-.67.66-1l.5-.82c.2-.34.41-.69.6-1l.46-.85c.19-.35.37-.7.54-1.06s.28-.58.42-.87.33-.72.49-1.08l.37-.88c.15-.37.3-.74.44-1.11s.22-.59.33-.89.26-.76.39-1.14.19-.6.28-.9.23-.78.33-1.18.16-.6.24-.9.19-.81.28-1.22.13-.59.19-.89.15-.85.23-1.28.1-.57.14-.86c.07-.46.12-.91.17-1.37,0-.26.07-.52.09-.78.05-.52.08-1,.12-1.58,0-.2,0-.4,0-.61s0-.15,0-.22H1518Zm0-42.52h-12.78c0-.07,0-.15,0-.22s0-.4,0-.61c0-.53-.07-1.05-.12-1.57,0-.26-.06-.52-.09-.78-.05-.46-.1-.92-.17-1.37,0-.29-.1-.57-.14-.86s-.14-.85-.23-1.28-.13-.59-.19-.89-.18-.81-.28-1.22-.16-.6-.24-.9-.21-.79-.33-1.18-.19-.6-.28-.9-.25-.76-.39-1.14-.22-.59-.33-.89-.29-.74-.44-1.11l-.37-.88q-.24-.55-.49-1.09l-.42-.86c-.18-.36-.36-.71-.55-1.06l-.46-.84c-.2-.35-.4-.69-.6-1l-.49-.82c-.21-.34-.44-.68-.66-1l-.53-.78c-.24-.34-.49-.68-.73-1l-.55-.74c-.27-.35-.54-.68-.82-1l-.55-.68c-.31-.36-.63-.71-.95-1.07-.17-.19-.34-.39-.51-.57l-.06-.07a40.3,40.3,0,0,1,24.8-10.08Zm4-38.55a40.17,40.17,0,0,1,25.84,11l-.07.09-.51.61c-.28.33-.57.66-.84,1l-.53.69c-.25.32-.5.65-.74,1l-.52.74c-.23.32-.45.65-.67,1l-.49.77c-.21.33-.41.66-.61,1l-.46.8c-.19.33-.37.67-.55,1l-.43.83q-.26.51-.5,1l-.39.85q-.23.52-.45,1l-.35.87q-.21.53-.4,1.06t-.31.88c-.12.36-.24.72-.35,1.08s-.18.59-.27.89-.2.74-.3,1.11-.16.6-.23.89-.17.76-.25,1.14-.13.59-.18.89-.14.79-.2,1.18-.1.58-.14.87-.1.84-.15,1.26-.07.54-.09.82c0,.46-.07.93-.1,1.4,0,.23,0,.46,0,.69V807h-14.67Zm0,81.07V811h14.67v.12c0,.23,0,.46,0,.69,0,.47.06.93.1,1.4,0,.27.06.55.09.82s.09.84.15,1.26.09.57.14.86.13.79.2,1.19.12.59.18.89.16.76.25,1.14.15.59.23.89.2.74.3,1.11.18.59.27.89.23.73.35,1.09.2.58.31.87.26.71.4,1.07l.35.86q.22.52.45,1l.39.85c.16.34.33.68.5,1l.43.83c.18.34.37.67.56,1l.46.8c.2.33.41.66.61,1s.32.51.49.77.44.66.67,1l.52.73c.24.33.49.65.74,1l.53.69c.27.34.55.67.84,1l.52.61.07.08A40.16,40.16,0,0,1,1521.95,849.53Zm28.6-13.9A40.31,40.31,0,0,1,1540.6,811h19.89A40.31,40.31,0,0,1,1550.55,835.63ZM1540.6,807a40.31,40.31,0,0,1,9.94-24.64,40.31,40.31,0,0,1,9.94,24.64Z"/></g><g id="_Group_33" data-name="&lt;Group&gt;"><path id="_Compound_Path_85" data-name="&lt;Compound Path&gt;" class="cls-2" d="M938.38,310a6.72,6.72,0,0,0-6.72,6.71v4.52a10.23,10.23,0,0,0-16.52,7.43H900.93a10.24,10.24,0,0,0-18.5-5.38,10.22,10.22,0,0,0-14.56-2v-4.52a6.72,6.72,0,0,0-13.43,0v77.48a9.86,9.86,0,0,0,5.14,18.27h81.16a9.86,9.86,0,0,0,4.35-18.71v-77A6.72,6.72,0,0,0,938.38,310Zm-2.74,41.39V316.76a2.74,2.74,0,0,1,5.48,0v76l-.38,0h-5.1Zm-10.26-28.35a6.29,6.29,0,1,1-6.29,6.29A6.29,6.29,0,0,1,925.38,323.09Zm-34.67,0a6.29,6.29,0,1,1-6.29,6.29A6.29,6.29,0,0,1,890.71,323.09Zm-8.27,12.33a10.24,10.24,0,0,0,18.44-4.72h14.34a10.24,10.24,0,0,0,16.45,6.77v5.88a10.23,10.23,0,0,0-15.35,3.29A10.25,10.25,0,0,0,897,350.78H867.87V337.47a10.21,10.21,0,0,0,14.56-2Zm24.82,50.71a10.27,10.27,0,0,0,10.21-9.27h14.2v15.93H867.87V384a10.24,10.24,0,0,0,16.5-7.1H897A10.27,10.27,0,0,0,907.26,386.13ZM901,375.86a6.29,6.29,0,1,1,6.29,6.29A6.29,6.29,0,0,1,901,375.86Zm16.5-1a10.26,10.26,0,0,0-20.42,0H884.37a10.24,10.24,0,0,0-16.5-7.1v-15h29.22a10.25,10.25,0,0,0,19.23,3.48,10.23,10.23,0,0,0,15.35,3.29v15.34ZM901,351.44a6.29,6.29,0,1,1,6.29,6.29A6.29,6.29,0,0,1,901,351.44Zm24.41,6.29a6.29,6.29,0,1,1,6.29-6.29A6.29,6.29,0,0,1,925.38,357.72Zm-51.22-34.63a6.29,6.29,0,0,1,6.29,6.28h0a6.29,6.29,0,1,1-6.29-6.29Zm0,46.49a6.29,6.29,0,1,1-6.29,6.29A6.29,6.29,0,0,1,874.16,369.58Zm-15.74-52.81a2.74,2.74,0,0,1,5.48,0v76h-4.32a10,10,0,0,0-1.16.07Zm88.22,85.89a5.9,5.9,0,0,1-5.89,5.89H859.58a5.89,5.89,0,0,1,0-11.78h81.16A5.9,5.9,0,0,1,946.64,402.66Z"/></g><g id="_Group_34" data-name="&lt;Group&gt;"><path id="_Compound_Path_86" data-name="&lt;Compound Path&gt;" class="cls-2" d="M1078.23,853.28a26.33,26.33,0,0,0,3.93.28,49,49,0,0,0,11.35-1.54c9.1-2.21,11.13-3,12.44-3.68a54.57,54.57,0,0,0,13.57-7h0c14.79-10.39,22.45-26.11,25.7-34.56h0c1.12-2.92,1.63-4.75,1.66-4.83.73-2.68,1.31-5.3,1.77-8h0c2.06-12.11.28-21.1-5.29-26.72-7.19-7.25-18.77-7.16-27.22-5.8h0a53.07,53.07,0,0,0-7.09,1.59c-1.72.63-3.52,1.36-5.52,2.21h0c-14.8,6.37-26.15,15.27-33.73,26.47h0a62.23,62.23,0,0,0-7,13.67,64.53,64.53,0,0,0-3.11,32.3C1060.77,846,1067.52,851.66,1078.23,853.28ZM1140.54,770c4,4.08,5.62,10.58,4.73,19.35l-24.52-24.52C1127,764.33,1135.42,764.84,1140.54,770Zm-30.16-3.26a50.43,50.43,0,0,1,5.4-1.25l28.77,28.77c-.41,2.24-.91,4.42-1.51,6.63,0,0-.16.57-.49,1.55l-34.73-34.73C1108.71,767.38,1109.55,767.06,1110.38,766.75Zm-6.5,2.65,19,19,18.2,18.2c-3.21,8-10,21.26-22.46,30.56l-22.27-22.27L1074,792.58C1081,782.95,1091,775.16,1103.88,769.41Zm-32.1,26.54,43.48,43.48a50.35,50.35,0,0,1-9.6,4.79L1067,805.54A58.08,58.08,0,0,1,1071.78,795.95Zm-8.18,41a60.89,60.89,0,0,1,1.94-27.21L1084.83,829l1.52,1.52,2.66,2.67,9.33,9.33,1.78,1.78,1.47,1.47c-1.65.52-4.34,1.25-9,2.38-5.52,1.34-10.15,1.74-13.75,1.2-4.19-.63-14.05-3.09-15.19-12.26A1.54,1.54,0,0,0,1063.61,836.92Z"/></g><g id="_Group_35" data-name="&lt;Group&gt;"><path id="_Compound_Path_87" data-name="&lt;Compound Path&gt;" class="cls-2" d="M934.58,737.57a2,2,0,1,0-3.71,1.44l5.75,14.84c0,.06.06.1.09.15l-4.23,4.23-5.2-13.83a2,2,0,1,0-3.72,1.4l5.75,15.31a2,2,0,0,0,.11.19l-10,10a47.44,47.44,0,1,0,2.81,2.81l8.92-8.92a2,2,0,0,0,1.4.83l18.66,2.05h.22a2,2,0,0,0,.21-4l-17.5-1.92,5.13-5.13.25.06,18.66,2.05h.22a2,2,0,0,0,.22-4l-15.77-1.73,9.58-9.58a2,2,0,0,0-2.81-2.81l-9.82,9.82Zm-3.84,68.61a43.45,43.45,0,1,1-14.16-32l-9.38,9.38a30.21,30.21,0,1,0,2.81,2.81l9.38-9.38A43.24,43.24,0,0,1,930.74,806.18Zm-44.81,1.41a2,2,0,0,0,2.81,0l6.12-6.12a8.93,8.93,0,1,1-2.81-2.81l-6.12,6.12A2,2,0,0,0,885.93,807.58Zm9-11.79a12.92,12.92,0,1,0,2.81,2.81l9.47-9.47a26.24,26.24,0,1,1-2.81-2.81Z"/></g><g id="_Group_36" data-name="&lt;Group&gt;"><path id="_Compound_Path_88" data-name="&lt;Compound Path&gt;" class="cls-2" d="M1563.62,555.41a38.53,38.53,0,1,0-38.53,38.53A38.59,38.59,0,0,0,1563.62,555.41Zm-4,0a34.76,34.76,0,0,1-.39,5.2,59.92,59.92,0,0,1-17.31,8.4,38.51,38.51,0,0,0,.86-5.09,50.54,50.54,0,0,0-3.29-22.23,50.43,50.43,0,0,0,13.93-6A34.62,34.62,0,0,1,1559.65,555.41Zm-18.83,8.31a36,36,0,0,1-1.07,5.87,50,50,0,0,1-29.09-1.86l-.73-.28a36.19,36.19,0,0,1-.56-3.72c-.78-8,1.05-15.84,3.75-22.67a52.17,52.17,0,0,0,14.56,2.14,47.11,47.11,0,0,0,9.83-1C1540,548.72,1541.56,556.16,1540.82,563.72Zm11-30.22.45.57a48.44,48.44,0,0,1-13.46,5.75A84.19,84.19,0,0,0,1528.07,521,34.44,34.44,0,0,1,1551.8,533.5Zm-26.71-12.63h.35a84.79,84.79,0,0,1,11.33,19.41,48,48,0,0,1-22.9-1.07,85.39,85.39,0,0,1,10.88-18.34Zm-3,.14a84.78,84.78,0,0,0-10.22,17.6,56.7,56.7,0,0,1-12.74-6A34.41,34.41,0,0,1,1522.12,521Zm-31.58,34.41a34.61,34.61,0,0,1,7.33-21.27,58.71,58.71,0,0,0,13.28,6.3c-2.73,7-4.58,15.12-3.76,23.46.09.9.22,1.8.37,2.68a65.37,65.37,0,0,1-17.2-10.69C1490.56,555.74,1490.55,555.58,1490.55,555.41Zm.16,3.23a66.79,66.79,0,0,0,17.53,10.29c1.82,7.76,6,14.72,12.64,20.77A34.6,34.6,0,0,1,1490.7,558.64ZM1525.1,590l-.91,0c-7-5.84-11.61-12.6-13.69-20.17a54,54,0,0,0,17.8,3.09,51.44,51.44,0,0,0,10.82-1.16c-2.3,6.8-6.68,12.91-13.1,18.25Zm4.22-.27a41.13,41.13,0,0,0,12-18.54,59.82,59.82,0,0,0,17.35-7.79A34.63,34.63,0,0,1,1529.32,589.7Z"/><path id="_Compound_Path_89" data-name="&lt;Compound Path&gt;" class="cls-2" d="M1517.65,608H1506.2a8.29,8.29,0,0,0,0,16.58H1544a8.29,8.29,0,1,0,0-16.58h-11.45v-1.91a7.39,7.39,0,0,0-.66-3,71.42,71.42,0,0,0,13.57-3.35,2.48,2.48,0,1,0-1.63-4.69c-8.29,2.88-16.07,4.05-23.13,3.48-21.31-1.74-39.36-22.08-39.43-44.42a43.88,43.88,0,0,1,1.17-10.43,37.59,37.59,0,0,1,7.29-14.77,36.33,36.33,0,0,1,13.08-10.31,2.48,2.48,0,1,0-2-4.55,40.86,40.86,0,0,0-14.93,11.73,42.59,42.59,0,0,0-8.26,16.74,48.83,48.83,0,0,0-1.31,11.61c.07,24.1,19.06,46.1,41.93,49.14a7.41,7.41,0,0,0-.58,2.87Zm2,4a2,2,0,0,0,2-2v-3.9a3.46,3.46,0,0,1,1.1-2.52c.5,0,1,0,1.51,0,1,0,2.08,0,3.13-.11a3.46,3.46,0,0,1,1.19,2.6V610a2,2,0,0,0,2,2H1544a4.31,4.31,0,1,1,0,8.63h-37.8a4.31,4.31,0,0,1,0-8.63Z"/></g><g id="_Group_37" data-name="&lt;Group&gt;"><path id="_Compound_Path_90" data-name="&lt;Compound Path&gt;" class="cls-2" d="M474.57,394.21a42.58,42.58,0,0,0,28.75,12.48l1.43,0A42.88,42.88,0,0,0,535,394.21a42.68,42.68,0,0,0-31.65-72.85,43.33,43.33,0,0,0-7,.81l-.23.06a5.91,5.91,0,0,0-3.91,3.34c-.94,2.34.05,4.84.77,6.19l.15.26.17.28.06.15,0,.05a14.93,14.93,0,0,1-20.79,19.65l-3-1.72v.81a6,6,0,0,0-2.63.33,7.42,7.42,0,0,0-4,4l-.12.4A42.69,42.69,0,0,0,474.57,394.21ZM466.71,357a3.36,3.36,0,0,1,1.6-1.66,3,3,0,0,1,2.36.37l.39.2.88.44,2.72,1.37-.1-.37a18.9,18.9,0,0,0,22.72-25.78l.15-.25-.76-1-.2-.34-.08-.13a3.79,3.79,0,0,1-.56-2.78,2.11,2.11,0,0,1,1.37-1,39.34,39.34,0,0,1,6.26-.71,38.71,38.71,0,1,1-26.08,66.07A38.72,38.72,0,0,1,466.71,357Z"/><path id="_Compound_Path_91" data-name="&lt;Compound Path&gt;" class="cls-2" d="M481.17,380a9,9,0,1,0-4.65-17.36h0a9,9,0,0,0,2.31,17.67A9,9,0,0,0,481.17,380Zm-5.82-2.62a7,7,0,1,1,5.31.7A6.95,6.95,0,0,1,475.34,377.4Z"/><path id="_Compound_Path_92" data-name="&lt;Compound Path&gt;" class="cls-2" d="M488.83,394a8.92,8.92,0,0,0,5.46,4.19,9,9,0,1,0-6.35-11h0A8.93,8.93,0,0,0,488.83,394Zm1-6.3a7,7,0,0,1,8.57-4.95,6.9,6.9,0,0,1,3,1.64,7,7,0,1,1-11.53,3.31Z"/><path id="_Compound_Path_93" data-name="&lt;Compound Path&gt;" class="cls-2" d="M521.2,375.06a9,9,0,1,0,6.35,2.63A8.92,8.92,0,0,0,521.2,375.06ZM526.15,389a7,7,0,0,1-9.89-9.89h0a7,7,0,0,1,9.89,9.89Z"/><path id="_Compound_Path_94" data-name="&lt;Compound Path&gt;" class="cls-2" d="M520.52,362.79a9,9,0,0,0,8.68,6.66,9,9,0,0,0,8.68-11.31,9,9,0,0,0-11-6.35h0A9,9,0,0,0,520.52,362.79Zm6.87-9.09a7,7,0,1,1-4.95,8.57A7,7,0,0,1,527.38,353.7Z"/><path id="_Compound_Path_95" data-name="&lt;Compound Path&gt;" class="cls-2" d="M509.12,350.64a9,9,0,0,0,2.34.31,9,9,0,1,0-2.34-.31Zm-4.44-10.49a7,7,0,1,1,.7,5.3A7,7,0,0,1,504.69,340.15Z"/><path id="_Compound_Path_96" data-name="&lt;Compound Path&gt;" class="cls-2" d="M450.51,315.84l-.63.77,0,0,.6-.79-1.2-.92-1.2.91c-.46.35-11.31,8.65-11.31,19.3,0,7.17,2.49,10.52,5.77,12-.13.73-.25,1.45-.35,2.15a122.26,122.26,0,0,0-.92,26c2.05,29,3.67,36.59,7.87,37.05l2.2.24v-1c3.22-2.32,4.34-12,5.86-36.51a137.88,137.88,0,0,0-.83-25.9l-.26-1.72h0l0-.24c3.25-1.53,5.73-4.88,5.73-12C461.75,324.81,451.68,316.74,450.51,315.84Zm2.69,58.91c-.64,10.33-1.8,29-3.83,32.94-2.17-4.48-3.55-24-4.17-32.75a118.16,118.16,0,0,1,.89-25.09c.08-.56.17-1.12.27-1.69a24.22,24.22,0,0,0,3,.16h0a23.87,23.87,0,0,0,2.83-.16c.07.47.14,1,.21,1.45l.23,1.72h0A135.23,135.23,0,0,1,453.2,374.75Zm4.13-38.06a3.48,3.48,0,0,0,.44-1.53c0,7.75-2.87,9.18-8.53,9.2s-8.53-1.44-8.53-9.28a12.39,12.39,0,0,1,.24-2.4,4.27,4.27,0,0,0,1.93.52c2.74.09,3.64-2.34,4.23-4,.32-.86.68-1.83,1-1.87.5.25,1.3,2.39,1.83,3.8,1.19,3.17,2.52,6.73,5.09,6.73a3.05,3.05,0,0,0,.62-.07A2.52,2.52,0,0,0,457.33,336.69ZM455,330.37c.49,1.75,1.22,4.4.68,5.29a.53.53,0,0,1-.4.25c-1.32.27-2.54-3-3.44-5.42-1.06-2.83-1.9-5.07-3.6-5.07h-.09c-1.72.08-2.35,1.78-2.85,3.15-.68,1.83-1.13,2.71-2.3,2.65a2.61,2.61,0,0,1-2.18-1.43c2.11-5.46,6.82-9.75,8.48-11.15a33.84,33.84,0,0,1,6.11,6.7,1.38,1.38,0,0,0-.62.37C453.9,326.55,454.32,328.07,455,330.37Z"/></g><g id="_Group_38" data-name="&lt;Group&gt;"><path id="_Compound_Path_97" data-name="&lt;Compound Path&gt;" class="cls-2" d="M459.78,552.73l-.93.82-.06,0-2.23,1.9.16.08a28,28,0,0,0-8,16.2h0a22.86,22.86,0,0,0-.15,2.94c0,.37,0,.73.06,1.17v.19c0,.21,0,.42.05.63.05.48.13,1,.21,1.44,0,.24.09.48.14.75.12.54.24,1.07.37,1.52l0,.1a41.56,41.56,0,0,0,2.64,6.82c.75,1.56,1.63,3.24,2.69,5.13l1.21,2.16a233.64,233.64,0,0,0,12.67,20.88l.14.18c4.08,4.62,9.14,9.28,15.64,8.84a16,16,0,0,0,7.68-2.74,16,16,0,0,0,7.69,2.74c.31,0,.62,0,.93,0,5.1,0,10.19-2.85,15.16-8.47l.1-.12a111.69,111.69,0,0,0,10.22-17.29c1.12-2.2,2.17-4.29,3.25-6.21s2-3.62,2.68-5.13a41.44,41.44,0,0,0,2.64-6.82l0-.06c.15-.53.27-1.05.37-1.55.06-.25.1-.5.15-.76.08-.48.16-1,.21-1.43,0-.21,0-.42.05-.62l0-.27c0-.37,0-.74.06-1.1a21.79,21.79,0,0,0-.14-2.95,27.94,27.94,0,0,0-8-16.21l.15-.08-2.22-1.89h0l-1-.85-.06,0a22.42,22.42,0,0,0-12.78-4.3h-.16l-.43,0a22.87,22.87,0,0,0-8.75,1.73,21.75,21.75,0,0,0-2.83,1.41A36,36,0,0,1,506,540.31c.37-.43.76-.85,1.15-1.27l1.22-1.28-1.13-1.36c-1-1.22-1.93-2.3-2.8-3.28l-1.42-1.6-1.49,1.53a43.76,43.76,0,0,0-6.6,8.77h0a16.51,16.51,0,0,0-14.36-8.11h-1.15l-.56,1a16.56,16.56,0,0,0-1,14.21,23.08,23.08,0,0,0-4.72-.5l-.43,0h-.17a22.41,22.41,0,0,0-12.78,4.3Zm43.16-15.31.16.19-.08.09a40,40,0,0,0-6.07,9.42l-.08-.39A40.33,40.33,0,0,1,502.95,537.42Zm-21.13.3a12.48,12.48,0,0,1,10.76,16.53l-.36,0h-.12a10,10,0,0,1-3.16-.76c-.63-.25-1.27-.53-1.92-.82l-.89-.39-.48-.21c-.29-.19-.6-.38-.93-.57l-.32-.18-.54-.3a12,12,0,0,1-1.39-1.88A12.56,12.56,0,0,1,481.82,537.72ZM462,556.13l0,0a18.4,18.4,0,0,1,10.68-3.65h.5a19,19,0,0,1,7.24,1.43c.44.18.86.4,1.27.61a17.41,17.41,0,0,1,1.88,1.08l.36.19c.48.2,1,.41,1.45.63a17.73,17.73,0,0,0,6.63,1.93h.14a11,11,0,0,0,1.37-.14l-.1.41,3.54-1.42c.61-.24,1.2-.51,1.79-.77s1-.44,1.47-.64l.36-.19a17.61,17.61,0,0,1,3.15-1.69,18.91,18.91,0,0,1,7.24-1.43h.49a18.41,18.41,0,0,1,10.69,3.66l0,0a2.22,2.22,0,0,0,1.18,1,24.53,24.53,0,0,1,8.18,15.11,18.08,18.08,0,0,1,.12,2.43c0,.3,0,.61,0,.95l0,.21c0,.16,0,.31,0,.47,0,.39-.1.79-.17,1.18,0,.2-.07.39-.12.61-.09.44-.19.89-.33,1.39a37.58,37.58,0,0,1-2.4,6.17c-.69,1.44-1.53,3-2.57,4.91s-2.19,4.11-3.32,6.35a108.85,108.85,0,0,1-9.8,16.64c-4.39,5-8.69,7.33-12.79,7a12.84,12.84,0,0,1-6.77-2.79l-1.19-.89-1.19.89a12.81,12.81,0,0,1-6.76,2.79c-3.79.26-7.47-2-12.31-7.42a231.16,231.16,0,0,1-12.39-20.44l-1.21-2.17c-1-1.83-1.86-3.43-2.58-4.92a37.77,37.77,0,0,1-2.38-6.1l0-.12c-.13-.45-.23-.9-.32-1.32,0-.21-.08-.41-.12-.63-.07-.39-.13-.78-.17-1.17,0-.15,0-.3,0-.44l0-.3c0-.29,0-.59-.05-.88a19.21,19.21,0,0,1,.12-2.43,24.53,24.53,0,0,1,8.18-15.1A2.21,2.21,0,0,0,462,556.13Z"/></g><g id="_Group_39" data-name="&lt;Group&gt;"><path id="_Compound_Path_98" data-name="&lt;Compound Path&gt;" class="cls-2" d="M1261.52,345.37h-.14l-.26,0h0l-.05,0-.1,0a2,2,0,0,0-.48.22l0,0a2,2,0,0,0-.4.35l0,0v0l-.06.07,0,0a2,2,0,0,0-.17.29v.08l0,.09a1.78,1.78,0,0,0-.06.18h0s0,0,0,.06a2,2,0,0,0,0,.26s0,0,0,0,0,.07,0,.1a2,2,0,0,0,0,.28v.06l0,.08,0,.1s0,.09,0,.13v0a2.06,2.06,0,0,0,.13.31l0,0h0v0l36.61,63.17a2,2,0,0,0,1.55,1h.17a2,2,0,0,0,1.52-.71l21.15-25.09,23.11,8.77.12,0a2,2,0,0,0,.7.13,2,2,0,0,0,1.87-2.6l-2.18-30.67,28.41-12.67a2,2,0,0,0-.8-3.8l-110.5-.56Zm62,38.14,1.72-2,5.31-6.3,9.27,14.54Zm39.27-33.65-20.71,9.24-56.39-9.62Zm-22.32,13,1.64,23-9.65-15.13c0-.06-.08-.1-.12-.15a1.88,1.88,0,0,0-.14-.16l-.13-.12-.11-.09-.12-.09a1.88,1.88,0,0,0-.25-.12l-.14-.07h0l-47.32-16.71Zm-13.06,9.88-29,34.36L1265.94,351Z"/></g><g id="_Group_40" data-name="&lt;Group&gt;"><path id="_Path_20" data-name="&lt;Path&gt;" class="cls-2" d="M662.15,616.17a2.8,2.8,0,0,1-2.79,2.79h-3a2.8,2.8,0,0,1-2.79-2.79V610h-3.2a5.08,5.08,0,0,1-.77-.08v6.28a6.78,6.78,0,0,0,6.77,6.77h3a6.78,6.78,0,0,0,6.77-6.77V610h-4Z"/><path id="_Path_21" data-name="&lt;Path&gt;" class="cls-2" d="M740.22,610v7.82a2.79,2.79,0,0,1-2.79,2.79h-3a2.8,2.8,0,0,1-2.79-2.79V610h-4v7.82a6.77,6.77,0,0,0,6.77,6.77h3a6.77,6.77,0,0,0,6.77-6.77v-8.38a5.1,5.1,0,0,1-2.29.56Z"/><path id="_Compound_Path_99" data-name="&lt;Compound Path&gt;" class="cls-2" d="M653.57,597.12V575.5a2.75,2.75,0,0,1,2.63-2.86h81.4a2.75,2.75,0,0,1,2.63,2.86v21.62h1.69a5.1,5.1,0,0,1,2.29.56V575.5a6.73,6.73,0,0,0-6.61-6.83h-1.67v-10a6.9,6.9,0,0,0,3,.65c3.29,0,5.87-2.13,5.87-4.84v-8.33c0-2.72-2.58-4.84-5.87-4.84a6.9,6.9,0,0,0-3,.65V537c0-4.41-3-8-6.77-8H664.63c-3.73,0-6.77,3.58-6.77,8v4.77a7.72,7.72,0,0,0-2.81-.52c-3.47,0-6.19,2.13-6.19,4.84v8.33c0,2.72,2.72,4.84,6.19,4.84a7.72,7.72,0,0,0,2.81-.52v9.9H656.2a6.73,6.73,0,0,0-6.61,6.83v21.7a5.1,5.1,0,0,1,.78-.08Zm83.44-51c0-.26.71-.87,1.89-.87s1.89.6,1.89.87v8.33c0,.27-.72.87-1.89.87s-1.89-.6-1.89-.87ZM661.84,537c0-2.18,1.28-4,2.79-4h64.52c1.51,0,2.79,1.84,2.79,4v31.66H661.84Zm-4.57,17.43c0,.2-.79.87-2.21.87s-2.18-.67-2.22-.87v-8.33c0-.2.79-.87,2.22-.87s2.18.67,2.21.87Z"/><path id="_Compound_Path_100" data-name="&lt;Compound Path&gt;" class="cls-2" d="M741.91,597.12H650.37a5.1,5.1,0,0,0-.78.08,5.17,5.17,0,0,0-4.4,5.1v2.5a5.17,5.17,0,0,0,4.4,5.1,5.08,5.08,0,0,0,.77.08h91.54a5.1,5.1,0,0,0,2.29-.56,5.16,5.16,0,0,0,2.89-4.62v-2.5a5.16,5.16,0,0,0-2.89-4.62A5.1,5.1,0,0,0,741.91,597.12Zm2.27,7.67a2.27,2.27,0,0,1-2.27,2.27H650.37a2.27,2.27,0,0,1-2.27-2.27v-2.5a2.27,2.27,0,0,1,2.27-2.27h91.54a2.27,2.27,0,0,1,2.27,2.27Z"/><path id="_Compound_Path_101" data-name="&lt;Compound Path&gt;" class="cls-2" d="M724.46,538.85H671.32a4.58,4.58,0,0,0-4.57,4.57V559a4.58,4.58,0,0,0,4.57,4.57h53.13A4.58,4.58,0,0,0,729,559V543.42A4.58,4.58,0,0,0,724.46,538.85ZM727,559a2.59,2.59,0,0,1-2.58,2.59H671.32a2.59,2.59,0,0,1-2.58-2.59V543.42a2.59,2.59,0,0,1,2.58-2.58h53.13a2.59,2.59,0,0,1,2.58,2.58Z"/><path id="_Compound_Path_102" data-name="&lt;Compound Path&gt;" class="cls-2" d="M671.39,578.93a5.63,5.63,0,1,0,5.63,5.63A5.64,5.64,0,0,0,671.39,578.93Zm0,9.27a3.64,3.64,0,1,1,3.64-3.64A3.65,3.65,0,0,1,671.39,588.2Z"/><path id="_Compound_Path_103" data-name="&lt;Compound Path&gt;" class="cls-2" d="M724.39,578.93a5.63,5.63,0,1,0,5.63,5.63A5.64,5.64,0,0,0,724.39,578.93Zm0,9.27a3.64,3.64,0,1,1,3.64-3.64A3.65,3.65,0,0,1,724.39,588.2Z"/></g><g id="_Group_41" data-name="&lt;Group&gt;"><path id="_Compound_Path_104" data-name="&lt;Compound Path&gt;" class="cls-2" d="M869.05,576.81A14.76,14.76,0,0,0,879.49,602h0a14.76,14.76,0,0,0,13.78-9.49h13.78A14.78,14.78,0,0,0,920.83,602h0a14.77,14.77,0,1,0-6.74-27.9,19.27,19.27,0,0,0-3.11-3.69,2,2,0,0,0-2.57-.11c-.08.06-8.21,6.12-16,.58l-4.09-6.33A14.76,14.76,0,0,0,899.79,570h0a14.83,14.83,0,1,0-13.19-8.14l-4.93-7.62a5,5,0,0,0-8.45,5.46l8.38,13a14.5,14.5,0,0,0-12.56,4.16Zm23.12-29.23A10.77,10.77,0,1,1,889,555.2,10.7,10.7,0,0,1,892.17,547.58Zm21,32A10.79,10.79,0,1,1,920.84,598h0a10.78,10.78,0,0,1-7.63-18.42ZM876,557.91a1.78,1.78,0,0,1,.53-2.46,1.83,1.83,0,0,1,2.47.53l9.63,14.9h0l2.48,3.83.16.15A16.89,16.89,0,0,0,893.3,576a16.06,16.06,0,0,0,1.81.65c6.16,1.8,11.78-.75,14.24-2.16a16,16,0,0,1,1.47,2c-.14.13-.29.25-.43.39a14.68,14.68,0,0,0-4.33,10.44c0,.43,0,.85.06,1.27H894.2c0-.42.06-.85.06-1.28a14.79,14.79,0,0,0-7.73-13l-.21-.33Zm14.33,29.33A10.81,10.81,0,0,1,879.49,598h0a10.79,10.79,0,1,1,10.79-10.79Z"/><path id="_Compound_Path_105" data-name="&lt;Compound Path&gt;" class="cls-2" d="M861.37,624a2,2,0,0,0,1.41.59H896.2a2,2,0,0,0,2-1.92c0-.53.33-13-7.5-20.16a2,2,0,0,0-2.55-.11c-.35.27-8.77,6.51-16.73,0a2,2,0,0,0-2.56,0c-.32.28-7.86,7-8.05,20.12A2,2,0,0,0,861.37,624Zm9-17.41c7,4.64,14.55,2.45,18.71,0,3.92,4.46,4.85,10.89,5.07,14.07H864.86A24.58,24.58,0,0,1,870.37,606.55Z"/><path id="_Compound_Path_106" data-name="&lt;Compound Path&gt;" class="cls-2" d="M929.48,602.36c-.35.27-8.77,6.51-16.73,0a2,2,0,0,0-2.56,0c-.32.28-7.86,7-8.05,20.12a2,2,0,0,0,2,2h33.42a2,2,0,0,0,2-1.92c0-.53.33-13-7.5-20.16A2,2,0,0,0,929.48,602.36Zm6,18.22H906.2a24.58,24.58,0,0,1,5.51-14c7,4.64,14.55,2.45,18.71,0C934.34,611,935.28,617.4,935.49,620.58Z"/></g><g id="_Group_42" data-name="&lt;Group&gt;"><path id="_Compound_Path_107" data-name="&lt;Compound Path&gt;" class="cls-2" d="M702,766.73H644.23a1.81,1.81,0,0,0-1.7,1.86V839a1.81,1.81,0,0,0,1.7,1.86h42.64v10.72c0,1.29,1.49,2.48,2.56,1.61l3.6-2.94,2.65-2.16c.23-.18.56-.39.84-.58a3.14,3.14,0,0,1,.46.36,33,33,0,0,0,2.56,2.1l3.93,3.22a1.27,1.27,0,0,0,1.91-.17,1.75,1.75,0,0,0,.65-1.44V840.86h42a1.5,1.5,0,0,0,1.15-.5l.06-.06,0,0a1.81,1.81,0,0,0,.46-1.27v-70.4a1.81,1.81,0,0,0-1.7-1.86H702Zm-15.09,70.4H645.93V770.46h40.94Zm15.76,10.74-5.29-4.34a1.52,1.52,0,0,0-1.72,0l-5.35,4.36V770.46h12.36Zm3.4-77.42h40.32v66.68H706Z"/><path id="_Path_22" data-name="&lt;Path&gt;" class="cls-2" d="M653.66,788h24c1.46,0,1.46-2.48,0-2.48h-24C652.2,785.47,652.2,788,653.66,788Z"/><path id="_Path_23" data-name="&lt;Path&gt;" class="cls-2" d="M653.66,798.4h24c1.46,0,1.46-2.48,0-2.48h-24C652.2,795.92,652.2,798.4,653.66,798.4Z"/><path id="_Path_24" data-name="&lt;Path&gt;" class="cls-2" d="M653.66,808.85h24c1.46,0,1.46-2.48,0-2.48h-24C652.2,806.37,652.2,808.85,653.66,808.85Z"/><path id="_Path_25" data-name="&lt;Path&gt;" class="cls-2" d="M653.66,819.3h24c1.46,0,1.46-2.48,0-2.48h-24C652.2,816.81,652.2,819.3,653.66,819.3Z"/><path id="_Path_26" data-name="&lt;Path&gt;" class="cls-2" d="M738.74,785.47h-24c-1.46,0-1.46,2.48,0,2.48h24C740.2,788,740.2,785.47,738.74,785.47Z"/><path id="_Path_27" data-name="&lt;Path&gt;" class="cls-2" d="M738.74,795.92h-24c-1.46,0-1.46,2.48,0,2.48h24C740.2,798.4,740.2,795.92,738.74,795.92Z"/><path id="_Path_28" data-name="&lt;Path&gt;" class="cls-2" d="M738.74,806.37h-24c-1.46,0-1.46,2.48,0,2.48h24C740.2,808.85,740.2,806.37,738.74,806.37Z"/><path id="_Path_29" data-name="&lt;Path&gt;" class="cls-2" d="M738.74,816.81h-24c-1.46,0-1.46,2.48,0,2.48h24C740.2,819.3,740.2,816.81,738.74,816.81Z"/></g><g id="_Group_43" data-name="&lt;Group&gt;"><path id="_Compound_Path_108" data-name="&lt;Compound Path&gt;" class="cls-2" d="M263.25,567.11a41.47,41.47,0,0,0,1.25,10.66c1.86,7.55,6.38,17.89,8,21.4a5.74,5.74,0,0,0-1.06,3.26,5.81,5.81,0,0,0,1.5,3.92,5.79,5.79,0,0,0-1.5,3.79,5.85,5.85,0,0,0,1.86,4.31,5.77,5.77,0,0,0-1.35,3.64,6.37,6.37,0,0,0,6.51,6.16l23.54.31h.09a6.84,6.84,0,0,0,4.76-1.89,5.77,5.77,0,0,0-.07-8.42,5.75,5.75,0,0,0,1.34-3.64,5.81,5.81,0,0,0-1.49-3.92,5.72,5.72,0,0,0,0-7.7c1.65-3.67,6.06-13.79,7.89-21.23a41.44,41.44,0,0,0,1.25-10.65,26.26,26.26,0,0,0-52.52,0Zm40.81,52.71a2.71,2.71,0,0,1-2,.76l-23.54-.31a2.41,2.41,0,0,1-2.59-2.15,2.19,2.19,0,0,1,1.78-2,2,2,0,0,0-.18-3.88,2.33,2.33,0,0,1-2.11-2.1,2.18,2.18,0,0,1,1.67-1.93,2,2,0,0,0,0-3.79,2.21,2.21,0,0,1-1.68-2,1.72,1.72,0,0,1,.3-.94h27.87a1.88,1.88,0,0,1,.58,1.33,2.17,2.17,0,0,1-1.66,1.93,2,2,0,0,0,0,3.79,2.21,2.21,0,0,1,1.68,2,2.18,2.18,0,0,1-1.78,2,2,2,0,0,0,.18,3.88,2.33,2.33,0,0,1,2.11,2.1A1.86,1.86,0,0,1,304.05,619.82Zm-14.55-75a22.31,22.31,0,0,1,22.29,22.29,37.79,37.79,0,0,1-1.14,9.71c-1.76,7.15-6.21,17.34-7.74,20.73H276.1c-1.53-3.39-6-13.57-7.74-20.72a37.86,37.86,0,0,1-1.14-9.72A22.31,22.31,0,0,1,289.51,544.83Z"/><path id="_Compound_Path_109" data-name="&lt;Compound Path&gt;" class="cls-2" d="M262,521.32a2.32,2.32,0,1,0-3.64,2.87l11.85,15.05a2.33,2.33,0,0,0,1.82.88h.08a2.32,2.32,0,0,0,1.74-3.75Zm10.24,16.74a.33.33,0,0,1-.19.07.31.31,0,0,1-.27-.13L259.92,523a.32.32,0,0,1-.07-.24.33.33,0,0,1,.13-.22.31.31,0,0,1,.2-.07h0a.34.34,0,0,1,.22.13l11.85,15a.32.32,0,0,1,.07.24A.33.33,0,0,1,272.23,538.06Z"/><path id="_Compound_Path_110" data-name="&lt;Compound Path&gt;" class="cls-2" d="M304.94,539.56h0a2.29,2.29,0,0,0,1.28.39h.08a2.32,2.32,0,0,0,1.85-1l9.77-14.7a2.32,2.32,0,1,0-3.86-2.57l-9.77,14.7a2.32,2.32,0,0,0,.65,3.21Zm1-2.11,9.78-14.7a.33.33,0,0,1,.45-.09.33.33,0,0,1,.14.21.32.32,0,0,1,0,.25l-9.78,14.7a.33.33,0,0,1-.26.15.36.36,0,0,1-.19-.05.33.33,0,0,1-.09-.46Z"/><path id="_Compound_Path_111" data-name="&lt;Compound Path&gt;" class="cls-2" d="M289,536.12h.17a2.33,2.33,0,0,0,2.24-2.22l.82-19.53A2.32,2.32,0,0,0,290,512a2.31,2.31,0,0,0-2.42,2.22l-.82,19.53a2.32,2.32,0,0,0,2.22,2.41Zm-.23-2.33.82-19.53a.33.33,0,0,1,.11-.23.34.34,0,0,1,.24-.08.32.32,0,0,1,.23.11.33.33,0,0,1,.09.24l-.82,19.53a.34.34,0,0,1-.33.32h0a.33.33,0,0,1-.31-.34Z"/><path id="_Path_30" data-name="&lt;Path&gt;" class="cls-2" d="M275.43,563.4h0a2.2,2.2,0,0,0,2.32-2,9.15,9.15,0,0,1,.26-1.67,7.69,7.69,0,0,1,6.11-5.56,10.19,10.19,0,0,1,1.94-.29,2.18,2.18,0,0,0-.1-4.36c-4.09.09-12,2.62-12.58,11.59A2.18,2.18,0,0,0,275.43,563.4Z"/></g><g id="_Group_44" data-name="&lt;Group&gt;"><path id="_Compound_Path_112" data-name="&lt;Compound Path&gt;" class="cls-2" d="M1502.94,391.25a21.34,21.34,0,0,0-.17-2.61,5.28,5.28,0,0,1,9.07-.23,21.19,21.19,0,1,0,42.17,2.93,21,21,0,0,0-3.17-11.13l27.73-27.73a3.34,3.34,0,0,0-4.68-4.68l-27.38,27.38a21.17,21.17,0,0,0-33.23,8,10,10,0,0,0-11.92.09,21.29,21.29,0,0,0-13.2-12.18L1509,350.27a3.15,3.15,0,0,0-.26-4.42,3.53,3.53,0,0,0-2.2-1,2.76,2.76,0,0,0-2.22.78l-24.58,24.58a21.19,21.19,0,1,0,23.25,21.09ZM1575.06,349a1.12,1.12,0,0,1,.8-.31,1.87,1.87,0,0,1,1.29.58,1.54,1.54,0,0,1,.26,2.09l-27.5,27.5a21.38,21.38,0,0,0-2.18-2.53Zm-42.23,24.48a17.9,17.9,0,1,1-17.9,17.9A17.92,17.92,0,0,1,1532.82,373.43Zm-25.44,9.42a8.35,8.35,0,0,1,5.3,1.9q-.25.76-.44,1.55a6.91,6.91,0,0,0-9.86.13c-.12-.54-.27-1.06-.43-1.58A8.36,8.36,0,0,1,1507.38,382.85Zm-1.95-36.1a1.1,1.1,0,0,1,.8-.31h.12a1.89,1.89,0,0,1,1.17.57,1.52,1.52,0,0,1,.26,2.09l-21.46,21.46a21.19,21.19,0,0,0-4.22-.49Zm-23.68,62.4a17.9,17.9,0,1,1,17.9-17.9A17.92,17.92,0,0,1,1481.75,409.14Z"/><path id="_Path_31" data-name="&lt;Path&gt;" class="cls-2" d="M1480.8,376.58c-4.31.09-12.62,2.76-13.25,12.21a2.3,2.3,0,0,0,2.14,2.44h0a2.32,2.32,0,0,0,2.44-2.14,9.7,9.7,0,0,1,.28-1.76c1-3.79,4-5.28,6.44-5.86a10.65,10.65,0,0,1,2-.3,2.3,2.3,0,0,0-.1-4.6Z"/><path id="_Path_32" data-name="&lt;Path&gt;" class="cls-2" d="M1533.92,376.58c-4.31.09-12.62,2.76-13.25,12.21a2.3,2.3,0,0,0,2.14,2.44h0a2.32,2.32,0,0,0,2.44-2.14,9.57,9.57,0,0,1,.28-1.76c1-3.79,4-5.28,6.44-5.86a10.65,10.65,0,0,1,2-.3,2.3,2.3,0,0,0-.1-4.6Z"/></g><g id="_Group_45" data-name="&lt;Group&gt;"><path id="_Compound_Path_113" data-name="&lt;Compound Path&gt;" class="cls-2" d="M663.3,380.14v20.14a12.24,12.24,0,1,0,24.48,0V334.93H689c3.24,0,5.88-3.17,5.88-7.06s-2.64-7.06-5.88-7.06H662.11c-3.24,0-5.88,3.17-5.88,7.06s2.64,7.06,5.88,7.06h1.19v45.2Zm20.5,0h0v20.14a8.26,8.26,0,1,1-16.53,0V380.15h0V334.93H683.8ZM662.11,331c-.9,0-1.9-1.27-1.9-3.08s1-3.08,1.9-3.08H689c.9,0,1.9,1.27,1.9,3.08s-1,3.08-1.9,3.08Z"/><path id="_Compound_Path_114" data-name="&lt;Compound Path&gt;" class="cls-2" d="M704.5,400.29a12.24,12.24,0,0,0,24.47,0V334.93h1.19c3.24,0,5.88-3.17,5.88-7.06s-2.64-7.06-5.88-7.06H703.31c-3.24,0-5.88,3.17-5.88,7.06s2.64,7.06,5.88,7.06h1.19v65.35ZM725,361.05v39.23a8.26,8.26,0,0,1-16.52,0V334.93H725ZM703.31,331c-.9,0-1.9-1.27-1.9-3.08s1-3.08,1.9-3.08h26.86c.9,0,1.9,1.27,1.9,3.08s-1,3.08-1.9,3.08Z"/><path id="_Path_33" data-name="&lt;Path&gt;" class="cls-2" d="M682.93,398.52a1.43,1.43,0,0,0-1.32-1.54h0a1.44,1.44,0,0,0-1.54,1.32,6.07,6.07,0,0,1-.19,1.09,5,5,0,0,1-4.05,3.6,6.65,6.65,0,0,1-1.28.17,1.43,1.43,0,0,0,0,2.86C677.28,406,682.47,404.4,682.93,398.52Z"/><path id="_Path_34" data-name="&lt;Path&gt;" class="cls-2" d="M715.79,406c2.68,0,7.88-1.63,8.34-7.51a1.43,1.43,0,0,0-1.32-1.54h0a1.44,1.44,0,0,0-1.54,1.32,5.9,5.9,0,0,1-.19,1.09A5,5,0,0,1,717,403a6.63,6.63,0,0,1-1.28.17,1.43,1.43,0,0,0,0,2.86Z"/><g id="_Group_46" data-name="&lt;Group&gt;"><g id="_Group_47" data-name="&lt;Group&gt;"><path id="_Path_35" data-name="&lt;Path&gt;" class="cls-2" d="M666.66,382h17.76a1.86,1.86,0,0,0,0-3.73H666.66a1.86,1.86,0,0,0,0,3.73Z"/></g></g><g id="_Group_48" data-name="&lt;Group&gt;"><g id="_Group_49" data-name="&lt;Group&gt;"><path id="_Path_36" data-name="&lt;Path&gt;" class="cls-2" d="M707,362.91h19.41a1.86,1.86,0,0,0,0-3.73H707a1.86,1.86,0,0,0,0,3.73Z"/></g></g></g></svg>